<svg id="svg" version="1.1" xmlns="http://www.w3.org/2000/svg" xmlns:xlink="http://www.w3.org/1999/xlink" width="400" height="128.27090815802975" viewBox="0, 0, 400,128.27090815802975"><g id="svgg"><path id="path0" d="M85.500 11.286 C 84.674 11.380,82.699 11.979,82.580 12.172 C 82.525 12.261,82.346 12.333,82.181 12.333 C 82.017 12.333,81.628 12.517,81.316 12.740 C 81.005 12.964,80.503 13.275,80.201 13.430 C 79.899 13.585,79.158 14.189,78.554 14.773 C 77.950 15.356,77.409 15.834,77.353 15.835 C 77.296 15.836,76.987 16.217,76.667 16.681 C 76.346 17.145,75.836 17.800,75.534 18.137 C 75.233 18.474,74.764 19.219,74.493 19.792 C 74.222 20.365,73.937 20.833,73.860 20.833 C 73.676 20.833,72.908 22.281,72.760 22.906 C 72.697 23.176,72.547 23.476,72.427 23.573 C 72.123 23.821,71.211 25.956,71.087 26.708 C 71.031 27.052,70.921 27.333,70.844 27.333 C 70.655 27.333,69.584 30.500,69.355 31.739 C 69.254 32.282,69.107 32.770,69.027 32.822 C 68.726 33.019,68.121 35.358,67.842 37.401 C 67.755 38.035,67.616 38.597,67.532 38.651 C 67.237 38.842,66.478 43.033,66.247 45.750 C 66.192 46.392,66.044 47.217,65.917 47.583 C 65.553 48.637,64.967 53.833,64.734 58.083 C 64.610 60.351,64.221 61.500,63.577 61.500 C 63.111 61.500,63.048 60.774,62.935 54.167 C 62.809 46.749,62.641 43.574,62.359 43.292 C 62.253 43.186,62.166 42.796,62.165 42.425 C 62.163 42.054,62.013 40.587,61.830 39.167 C 61.647 37.746,61.423 35.728,61.332 34.683 C 61.241 33.638,61.087 32.688,60.990 32.571 C 60.799 32.341,60.132 29.576,59.732 27.354 C 59.594 26.586,59.386 25.863,59.270 25.747 C 59.155 25.631,58.738 24.553,58.346 23.351 C 57.953 22.150,57.561 21.167,57.475 21.167 C 57.316 21.167,56.334 19.225,56.333 18.910 C 56.333 18.814,56.075 18.462,55.759 18.127 C 55.443 17.792,55.076 17.307,54.942 17.050 C 54.512 16.217,51.250 13.167,50.790 13.167 C 50.705 13.167,50.430 13.021,50.179 12.842 C 49.704 12.504,48.882 12.176,47.333 11.707 C 44.431 10.828,36.774 11.796,35.174 13.243 C 35.018 13.385,34.771 13.500,34.625 13.500 C 34.478 13.500,34.015 13.762,33.595 14.083 C 33.174 14.404,32.767 14.667,32.690 14.667 C 32.526 14.667,31.587 15.458,30.564 16.458 C 30.165 16.848,29.781 17.168,29.711 17.170 C 29.570 17.173,28.500 18.417,28.500 18.578 C 28.500 18.633,28.233 18.944,27.908 19.270 C 27.582 19.596,27.123 20.269,26.888 20.765 C 26.653 21.261,26.402 21.667,26.330 21.667 C 26.135 21.667,25.427 22.959,25.076 23.958 C 24.906 24.440,24.709 24.833,24.637 24.833 C 24.411 24.833,23.841 26.116,23.591 27.188 C 23.459 27.755,23.282 28.264,23.198 28.318 C 22.929 28.492,22.155 31.207,22.002 32.512 C 21.838 33.921,21.681 34.668,21.498 34.917 C 21.339 35.133,21.065 37.174,20.818 39.989 C 20.499 43.614,20.920 50.036,21.566 51.406 C 21.698 51.687,21.886 52.494,21.984 53.199 C 22.162 54.488,22.912 56.667,23.178 56.667 C 23.256 56.667,23.406 56.985,23.511 57.375 C 23.777 58.362,24.099 58.937,24.673 59.449 C 24.945 59.691,25.167 59.963,25.167 60.053 C 25.167 60.344,26.008 61.333,26.255 61.333 C 26.385 61.333,26.613 61.518,26.761 61.743 C 28.103 63.792,33.064 64.012,35.524 62.131 C 35.858 61.876,36.198 61.667,36.280 61.667 C 36.362 61.667,36.709 61.292,37.051 60.833 C 37.393 60.375,37.749 60.000,37.842 60.000 C 37.934 60.000,38.385 59.235,38.842 58.299 C 39.299 57.364,39.737 56.558,39.814 56.508 C 39.891 56.458,39.994 56.192,40.043 55.917 C 40.091 55.642,40.251 54.892,40.397 54.250 C 40.755 52.681,40.904 50.631,40.759 49.278 L 40.640 48.167 39.695 47.708 C 38.901 47.323,38.684 47.117,38.335 46.417 C 38.106 45.958,37.874 45.546,37.818 45.500 C 36.529 44.442,36.528 36.407,37.817 35.333 C 37.992 35.187,38.333 34.512,38.333 34.311 C 38.333 34.006,39.496 32.667,39.761 32.667 C 39.893 32.667,40.000 32.601,40.000 32.520 C 40.000 32.236,41.095 31.921,42.083 31.919 C 43.876 31.917,44.901 32.809,45.770 35.126 C 45.933 35.561,46.132 35.962,46.213 36.018 C 46.828 36.442,46.798 49.428,46.182 49.634 C 46.082 49.667,46.000 49.902,46.000 50.156 C 46.000 50.409,45.933 50.834,45.850 51.100 C 45.768 51.366,45.537 52.521,45.338 53.667 C 44.888 56.250,44.522 57.856,44.330 58.087 C 44.131 58.327,43.391 60.762,43.276 61.557 C 43.225 61.908,43.093 62.305,42.983 62.437 C 42.684 62.797,41.673 65.363,41.669 65.769 C 41.668 65.963,41.527 66.301,41.356 66.519 C 40.939 67.052,40.000 68.930,40.000 69.231 C 40.000 69.364,39.943 69.497,39.872 69.528 C 39.688 69.608,38.333 71.900,38.333 72.132 C 38.333 72.240,37.997 72.678,37.586 73.107 C 37.175 73.536,36.795 74.025,36.742 74.193 C 36.578 74.710,33.256 77.833,32.870 77.833 C 32.784 77.833,32.459 78.005,32.148 78.214 C 30.378 79.408,26.628 79.294,25.255 78.005 C 25.057 77.819,24.814 77.667,24.715 77.667 C 24.548 77.667,24.219 77.312,23.189 76.027 C 22.487 75.149,22.145 74.128,21.745 71.716 C 21.095 67.786,20.280 67.418,16.658 69.418 C 15.937 69.817,14.174 71.775,13.823 72.567 C 13.640 72.981,13.389 73.420,13.265 73.545 C 12.891 73.919,12.318 75.154,12.061 76.143 C 11.928 76.654,11.752 77.114,11.670 77.165 C 11.467 77.290,10.670 80.070,10.570 81.000 C 10.313 83.399,10.099 84.775,9.957 84.957 C 9.749 85.223,9.724 92.692,9.930 93.012 C 10.133 93.327,10.470 95.228,10.487 96.148 C 10.501 96.912,11.422 100.345,11.653 100.496 C 11.726 100.544,11.880 100.883,11.995 101.250 C 12.307 102.247,12.977 103.667,13.136 103.667 C 13.212 103.667,13.478 104.108,13.727 104.646 C 14.195 105.660,16.198 108.000,16.598 108.000 C 16.721 108.000,16.894 108.136,16.983 108.302 C 17.339 108.967,19.692 109.958,21.798 110.331 C 24.600 110.828,29.839 109.407,32.072 107.546 C 32.432 107.246,32.798 107.000,32.885 107.000 C 33.193 107.000,36.400 103.823,37.069 102.855 C 37.337 102.469,37.652 102.098,37.771 102.032 C 37.889 101.965,38.372 101.275,38.844 100.497 C 39.316 99.720,39.751 99.046,39.809 98.999 C 39.868 98.953,40.171 98.428,40.482 97.833 C 40.793 97.237,41.186 96.616,41.357 96.452 C 41.527 96.288,41.667 96.004,41.667 95.822 C 41.667 95.448,42.549 93.624,43.022 93.019 C 43.193 92.801,43.333 92.469,43.333 92.282 C 43.333 91.885,44.143 89.791,44.347 89.661 C 44.562 89.524,45.000 88.390,45.000 87.971 C 45.000 87.479,46.020 84.476,46.278 84.206 C 46.389 84.091,46.527 83.641,46.583 83.206 C 46.721 82.151,47.692 78.610,47.879 78.482 C 47.961 78.426,48.130 77.713,48.255 76.898 C 48.556 74.940,49.097 72.538,49.294 72.285 C 49.447 72.089,49.659 70.903,50.002 68.333 C 50.281 66.235,50.804 63.367,50.964 63.050 C 51.117 62.749,51.403 60.496,51.585 58.167 C 51.851 54.769,52.328 53.000,52.977 53.000 C 53.525 53.000,53.673 54.002,53.495 56.500 C 52.847 65.556,52.849 93.155,53.496 96.000 C 53.590 96.412,53.791 97.294,53.942 97.958 C 54.093 98.623,54.271 99.167,54.338 99.167 C 54.405 99.167,54.584 99.661,54.735 100.264 C 55.002 101.327,55.354 102.072,55.753 102.417 C 55.859 102.508,56.140 102.892,56.377 103.269 C 57.598 105.208,61.541 105.766,63.118 104.222 C 63.289 104.054,63.689 103.687,64.006 103.406 C 64.324 103.125,64.841 102.413,65.156 101.823 C 65.472 101.233,65.821 100.675,65.934 100.583 C 66.047 100.492,66.269 99.929,66.428 99.333 C 66.587 98.737,66.878 97.650,67.075 96.917 C 67.271 96.183,67.517 95.429,67.621 95.241 C 67.725 95.053,67.896 93.965,68.001 92.824 C 68.105 91.684,68.263 90.150,68.351 89.417 C 68.439 88.683,68.585 87.408,68.677 86.583 C 68.769 85.758,68.911 84.933,68.994 84.750 C 69.167 84.364,69.435 82.374,69.588 80.333 C 69.751 78.164,70.673 71.932,70.848 71.824 C 70.933 71.772,71.075 71.021,71.163 70.156 C 71.476 67.079,72.198 63.114,72.515 62.732 C 72.610 62.617,72.727 62.087,72.774 61.553 C 72.886 60.289,73.655 56.641,73.863 56.384 C 74.082 56.116,74.496 54.529,74.498 53.949 C 74.500 53.382,75.308 50.453,75.494 50.335 C 75.689 50.211,76.167 48.723,76.167 48.239 C 76.167 47.737,77.133 45.176,77.437 44.872 C 77.556 44.753,77.705 44.379,77.769 44.041 C 77.921 43.229,78.543 41.850,78.983 41.349 C 79.176 41.128,79.410 40.666,79.503 40.322 C 79.596 39.978,79.907 39.446,80.195 39.140 C 80.484 38.834,80.915 38.254,81.153 37.851 C 81.391 37.447,81.731 37.035,81.908 36.934 C 82.085 36.833,82.406 36.548,82.622 36.300 C 84.062 34.653,86.691 34.633,87.652 36.263 C 89.169 38.834,94.551 37.169,96.314 33.583 C 96.629 32.942,96.992 32.293,97.120 32.142 C 97.249 31.991,97.419 31.429,97.499 30.892 C 97.579 30.356,97.761 29.279,97.903 28.500 C 98.279 26.434,98.248 22.933,97.835 20.891 C 97.652 19.989,97.501 19.100,97.499 18.917 C 97.497 18.733,97.388 18.396,97.257 18.167 C 97.127 17.938,96.728 17.188,96.372 16.500 C 94.338 12.574,90.473 10.721,85.500 11.286 M90.083 12.230 C 91.184 12.537,92.118 12.980,92.850 13.542 C 93.179 13.794,93.534 14.000,93.639 14.000 C 93.743 14.000,94.007 14.281,94.224 14.625 C 94.442 14.969,94.859 15.505,95.151 15.817 C 95.661 16.362,95.991 17.098,96.688 19.239 C 96.865 19.783,97.101 20.338,97.213 20.473 C 97.554 20.883,97.497 28.975,97.150 29.507 C 97.004 29.733,96.830 30.208,96.764 30.563 C 96.698 30.919,96.461 31.622,96.238 32.125 C 96.016 32.629,95.833 33.134,95.833 33.246 C 95.833 33.359,95.627 33.669,95.375 33.936 C 95.123 34.203,94.729 34.647,94.500 34.923 C 93.575 36.034,92.265 36.568,90.446 36.576 L 88.809 36.583 88.280 35.966 C 87.988 35.627,87.591 35.143,87.397 34.890 C 86.385 33.571,82.299 34.793,81.138 36.761 C 80.961 37.061,80.640 37.422,80.423 37.564 C 80.207 37.706,79.837 38.230,79.600 38.730 C 79.364 39.229,79.104 39.663,79.023 39.694 C 78.804 39.777,77.833 41.773,77.833 42.139 C 77.833 42.313,77.680 42.649,77.493 42.887 C 77.055 43.445,76.167 45.597,76.167 46.103 C 76.167 46.508,75.690 47.854,75.495 48.000 C 75.286 48.156,74.530 50.747,74.441 51.614 C 74.392 52.089,74.195 52.802,74.004 53.197 C 73.574 54.087,72.898 56.883,72.764 58.324 C 72.710 58.915,72.578 59.451,72.473 59.517 C 72.222 59.672,71.381 63.790,71.168 65.906 C 71.077 66.817,70.939 67.605,70.862 67.656 C 70.589 67.839,69.877 72.383,69.313 77.542 C 69.206 78.527,69.064 79.333,68.999 79.333 C 68.933 79.333,68.834 79.690,68.778 80.125 C 68.722 80.560,68.566 81.782,68.430 82.840 C 68.295 83.898,68.068 86.144,67.926 87.830 C 67.784 89.517,67.604 90.938,67.526 90.990 C 67.448 91.041,67.335 91.571,67.276 92.167 C 67.111 93.813,66.155 98.384,65.917 98.667 C 65.801 98.804,65.652 99.104,65.586 99.333 C 65.519 99.563,65.285 100.078,65.066 100.479 C 64.846 100.880,64.667 101.274,64.667 101.354 C 64.667 101.434,64.535 101.638,64.375 101.807 C 64.215 101.976,63.801 102.460,63.456 102.884 C 62.196 104.429,59.679 104.917,58.230 103.897 C 57.985 103.725,57.589 103.467,57.350 103.326 C 57.111 103.184,56.705 102.626,56.444 102.084 C 56.184 101.542,55.877 101.021,55.761 100.925 C 55.434 100.654,54.867 98.855,54.774 97.791 C 54.728 97.264,54.570 96.590,54.422 96.295 C 53.408 94.262,53.148 82.547,53.765 66.750 C 53.997 60.805,54.110 58.837,54.439 55.023 C 54.496 54.360,54.462 53.895,54.348 53.782 C 54.248 53.682,54.167 53.475,54.167 53.322 C 54.167 52.482,52.967 51.866,52.333 52.380 C 51.743 52.860,51.618 53.272,51.332 55.681 C 51.167 57.067,50.950 58.283,50.850 58.384 C 50.749 58.484,50.666 58.795,50.665 59.075 C 50.665 59.355,50.553 60.296,50.416 61.167 C 50.172 62.729,50.004 63.981,49.647 66.917 C 49.546 67.742,49.388 68.510,49.296 68.624 C 49.108 68.855,48.452 72.044,48.175 74.075 C 48.075 74.804,47.936 75.442,47.865 75.492 C 47.738 75.581,46.876 78.981,46.502 80.864 C 46.399 81.385,46.260 81.835,46.194 81.864 C 46.037 81.933,45.000 85.363,45.000 85.814 C 45.000 86.200,44.508 87.536,44.317 87.668 C 44.121 87.803,43.333 90.002,43.333 90.414 C 43.333 90.620,43.193 90.967,43.020 91.186 C 42.623 91.692,41.667 93.790,41.667 94.157 C 41.667 94.310,41.475 94.694,41.240 95.009 C 40.714 95.717,40.000 97.112,40.000 97.430 C 40.000 97.560,39.934 97.667,39.852 97.667 C 39.690 97.667,38.333 99.875,38.333 100.140 C 38.333 100.231,38.105 100.518,37.826 100.778 C 37.547 101.037,37.159 101.504,36.964 101.815 C 35.960 103.418,32.579 106.577,30.884 107.494 C 30.535 107.682,30.137 107.906,30.000 107.990 C 26.938 109.866,20.659 110.190,18.667 108.575 C 18.529 108.464,18.267 108.326,18.083 108.270 C 17.690 108.149,15.825 106.391,15.000 105.364 C 14.383 104.596,14.049 104.011,13.577 102.875 C 13.415 102.485,13.230 102.167,13.166 102.167 C 13.005 102.167,12.166 100.155,12.166 99.769 C 12.167 99.318,11.803 98.167,11.659 98.167 C 11.592 98.167,11.500 97.960,11.453 97.708 C 11.407 97.456,11.202 96.462,10.998 95.500 C 10.539 93.333,10.341 86.978,10.656 84.567 C 10.938 82.415,11.453 79.978,11.754 79.376 C 11.897 79.089,12.081 78.456,12.162 77.969 C 12.318 77.030,12.963 75.333,13.164 75.333 C 13.229 75.333,13.414 75.015,13.573 74.625 C 13.733 74.235,14.023 73.601,14.216 73.216 C 14.639 72.374,16.447 70.333,16.770 70.333 C 16.897 70.333,17.000 70.264,17.000 70.180 C 17.000 69.884,18.094 69.361,19.137 69.157 C 20.474 68.897,20.614 69.020,20.754 70.583 C 20.903 72.248,21.285 74.004,21.566 74.316 C 21.699 74.463,21.861 74.808,21.927 75.083 C 22.278 76.550,25.057 79.323,26.188 79.336 C 26.314 79.337,26.717 79.446,27.083 79.579 C 29.564 80.472,33.185 79.099,35.861 76.250 C 37.981 73.994,38.333 73.593,38.333 73.443 C 38.333 73.207,39.723 71.000,39.872 71.000 C 39.942 71.000,40.000 70.883,40.000 70.741 C 40.000 70.454,40.875 68.809,41.358 68.186 C 41.528 67.967,41.667 67.661,41.667 67.505 C 41.667 67.153,42.647 64.895,43.042 64.338 C 43.202 64.111,43.333 63.748,43.333 63.531 C 43.333 63.114,44.153 60.642,44.338 60.500 C 44.519 60.361,45.000 58.803,45.003 58.345 C 45.004 58.110,45.229 57.056,45.503 56.005 C 45.776 54.953,46.000 53.966,46.000 53.810 C 46.000 53.655,46.079 53.501,46.176 53.469 C 46.273 53.437,46.421 52.887,46.505 52.247 C 46.780 50.141,47.154 47.101,47.259 46.103 C 47.419 44.587,47.367 39.218,47.180 37.917 C 46.934 36.212,46.488 34.347,46.272 34.116 C 46.168 34.005,45.796 33.488,45.445 32.968 C 43.978 30.791,41.027 30.503,38.941 32.334 C 38.607 32.628,38.333 32.965,38.333 33.083 C 38.333 33.201,38.140 33.475,37.905 33.691 C 37.318 34.228,36.833 35.373,36.647 36.659 C 36.562 37.251,36.402 37.791,36.293 37.858 C 36.013 38.032,36.013 42.802,36.293 42.975 C 36.402 43.042,36.562 43.582,36.647 44.174 C 36.816 45.347,37.341 46.721,37.704 46.943 C 37.830 47.020,38.094 47.314,38.290 47.595 C 38.500 47.896,38.919 48.197,39.308 48.325 C 39.919 48.527,39.977 48.600,40.083 49.303 C 40.224 50.244,40.012 54.167,39.820 54.167 C 39.743 54.167,39.603 54.451,39.509 54.799 C 39.136 56.185,38.025 58.612,37.515 59.154 C 37.220 59.468,36.869 59.937,36.735 60.196 C 36.601 60.455,36.396 60.667,36.280 60.667 C 36.163 60.667,35.775 60.967,35.417 61.333 C 35.059 61.700,34.684 62.000,34.585 62.000 C 34.485 62.000,34.107 62.152,33.744 62.338 C 31.767 63.349,28.188 62.598,26.893 60.900 C 26.655 60.588,26.388 60.333,26.299 60.333 C 26.039 60.333,25.525 59.646,25.145 58.792 C 24.951 58.356,24.734 58.000,24.663 58.000 C 24.425 58.000,23.824 56.804,23.646 55.978 C 23.550 55.529,23.371 55.062,23.248 54.939 C 22.807 54.497,22.163 51.634,21.988 49.333 C 21.893 48.096,21.746 46.596,21.661 46.000 C 21.457 44.573,21.459 41.992,21.665 40.470 C 21.756 39.799,21.904 38.162,21.993 36.833 C 22.159 34.378,22.763 31.357,23.235 30.622 C 23.367 30.417,23.555 29.800,23.654 29.250 C 23.854 28.133,24.463 26.500,24.679 26.500 C 24.757 26.500,24.970 26.015,25.153 25.422 C 25.557 24.114,25.856 23.516,26.310 23.104 C 26.499 22.933,26.743 22.524,26.852 22.194 C 27.070 21.533,27.890 20.325,28.262 20.117 C 28.393 20.043,28.500 19.867,28.500 19.725 C 28.500 19.359,32.284 15.692,32.949 15.414 C 33.252 15.287,33.500 15.116,33.500 15.033 C 33.500 14.899,35.588 13.800,36.917 13.235 C 39.697 12.053,44.635 11.647,47.042 12.402 C 47.477 12.539,47.833 12.615,47.833 12.572 C 47.833 12.529,48.130 12.645,48.493 12.830 C 48.856 13.015,49.236 13.167,49.338 13.167 C 49.439 13.167,49.768 13.354,50.069 13.583 C 50.369 13.813,50.693 14.000,50.789 14.000 C 51.006 14.000,52.379 15.200,53.161 16.074 C 53.485 16.435,53.951 16.943,54.198 17.201 C 54.444 17.460,54.817 18.014,55.026 18.433 C 55.235 18.851,55.569 19.357,55.769 19.557 C 55.968 19.756,56.366 20.528,56.653 21.272 C 56.940 22.016,57.318 22.790,57.493 22.992 C 57.668 23.194,57.893 23.743,57.994 24.212 C 58.270 25.498,59.194 28.404,59.361 28.513 C 59.442 28.565,59.552 29.015,59.604 29.513 C 59.656 30.010,59.847 31.167,60.028 32.083 C 60.209 33.000,60.459 34.412,60.585 35.220 C 60.710 36.029,60.890 36.784,60.985 36.899 C 61.081 37.014,61.235 38.415,61.328 40.012 C 61.421 41.610,61.611 44.379,61.750 46.167 C 61.888 47.954,62.051 51.891,62.112 54.915 C 62.197 59.158,62.273 60.463,62.444 60.635 C 62.567 60.757,62.667 60.961,62.667 61.087 C 62.667 61.997,63.497 62.448,64.341 61.996 C 64.892 61.701,65.301 59.856,65.503 56.750 C 65.604 55.192,65.793 53.617,65.923 53.250 C 66.053 52.883,66.232 51.493,66.320 50.161 C 66.486 47.665,67.275 42.315,67.499 42.167 C 67.660 42.060,67.795 41.415,68.002 39.751 C 68.193 38.225,68.818 35.629,69.028 35.489 C 69.106 35.438,69.352 34.517,69.574 33.444 C 69.987 31.453,70.564 29.666,70.852 29.489 C 70.940 29.434,71.053 29.096,71.104 28.737 C 71.225 27.873,72.115 25.610,72.516 25.148 C 72.690 24.947,72.833 24.641,72.833 24.469 C 72.833 24.066,73.595 22.555,74.106 21.946 C 74.323 21.686,74.500 21.348,74.500 21.193 C 74.500 20.892,75.168 19.832,75.682 19.318 C 75.852 19.148,76.095 18.762,76.220 18.462 C 76.521 17.743,79.877 14.359,80.507 14.139 C 80.778 14.045,81.000 13.902,81.000 13.822 C 81.000 13.458,84.244 12.172,85.750 11.938 C 86.592 11.808,89.202 11.983,90.083 12.230 M207.484 48.208 C 207.476 66.473,207.406 82.092,207.330 82.917 C 207.077 85.650,205.906 90.428,205.353 90.980 C 205.199 91.134,204.819 91.614,204.508 92.047 C 204.198 92.479,203.880 92.833,203.802 92.833 C 203.724 92.833,203.343 93.040,202.955 93.292 C 201.246 94.402,197.016 93.727,196.034 92.187 C 195.881 91.946,195.634 91.659,195.485 91.549 C 195.088 91.254,194.500 89.783,194.312 88.612 C 194.221 88.050,194.082 87.551,194.002 87.501 C 193.538 87.215,193.002 81.078,193.001 76.039 L 193.000 73.162 188.042 73.206 L 183.083 73.250 183.032 76.000 C 182.938 81.090,183.517 88.667,184.100 89.982 C 184.237 90.292,184.392 91.042,184.443 91.648 C 184.558 93.001,185.056 94.735,185.687 95.980 C 185.949 96.495,186.163 97.071,186.165 97.260 C 186.167 97.654,186.681 98.772,187.310 99.749 C 187.546 100.116,187.854 100.623,187.994 100.876 C 188.593 101.951,191.205 104.661,192.083 105.119 C 192.358 105.263,192.622 105.438,192.668 105.510 C 192.715 105.582,193.242 105.867,193.839 106.143 C 198.355 108.233,205.577 107.367,209.270 104.292 C 209.683 103.948,210.090 103.667,210.175 103.667 C 210.260 103.667,210.512 103.385,210.735 103.042 C 210.958 102.698,211.401 102.141,211.718 101.803 C 212.035 101.466,212.580 100.716,212.929 100.137 C 213.278 99.557,213.627 99.040,213.704 98.986 C 213.782 98.933,214.140 98.039,214.500 97.000 C 214.860 95.961,215.237 95.060,215.338 94.997 C 215.439 94.935,215.586 94.478,215.663 93.983 C 215.921 92.342,216.492 89.431,216.754 88.417 C 217.268 86.433,217.303 84.076,217.319 49.792 L 217.335 15.000 212.417 15.000 L 207.500 15.000 207.484 48.208 M216.626 15.805 C 216.848 15.945,216.827 78.870,216.604 80.833 C 216.547 81.337,216.421 82.912,216.324 84.333 C 216.227 85.754,216.046 87.667,215.921 88.583 C 215.796 89.500,215.650 90.733,215.596 91.324 C 215.542 91.915,215.426 92.443,215.337 92.498 C 215.166 92.603,214.000 96.291,214.000 96.725 C 214.000 96.863,213.895 97.081,213.766 97.210 C 213.638 97.338,213.253 98.000,212.910 98.680 C 212.568 99.360,211.976 100.329,211.596 100.833 C 211.215 101.337,210.773 101.956,210.615 102.208 C 210.456 102.460,210.233 102.667,210.120 102.667 C 210.006 102.667,209.689 102.928,209.415 103.246 C 209.141 103.565,208.852 103.828,208.774 103.830 C 208.696 103.832,208.324 104.077,207.947 104.375 C 207.242 104.934,206.906 105.087,204.917 105.752 C 199.058 107.713,192.109 105.933,189.624 101.833 C 189.429 101.513,189.078 101.048,188.843 100.801 C 188.609 100.555,188.277 100.067,188.107 99.718 C 187.936 99.369,187.729 98.971,187.647 98.833 C 187.122 97.958,186.287 95.954,186.153 95.250 C 185.959 94.225,185.660 93.278,185.495 93.167 C 185.224 92.984,184.514 88.973,184.418 87.083 C 184.362 85.983,184.210 84.769,184.080 84.385 C 183.820 83.617,183.523 75.095,183.728 74.280 L 183.840 73.833 188.170 73.833 L 192.500 73.833 192.506 76.708 C 192.512 79.423,192.546 80.473,192.750 84.376 C 192.844 86.162,193.562 89.539,193.927 89.903 C 194.054 90.030,194.228 90.447,194.314 90.829 C 194.483 91.582,194.689 91.877,195.797 92.955 C 197.065 94.190,197.746 94.412,200.250 94.406 C 203.847 94.397,205.375 93.235,206.686 89.508 C 206.861 89.009,207.077 88.555,207.165 88.501 C 207.946 88.018,208.161 78.846,208.164 45.792 L 208.167 15.667 212.292 15.669 C 214.560 15.671,216.511 15.732,216.626 15.805 M99.667 38.178 C 98.352 38.296,96.084 38.897,95.914 39.172 C 95.859 39.261,95.687 39.336,95.532 39.339 C 95.377 39.342,94.950 39.565,94.583 39.835 C 94.217 40.105,93.750 40.400,93.546 40.491 C 93.097 40.690,89.959 43.822,89.449 44.581 C 89.248 44.880,88.765 45.580,88.375 46.136 C 87.985 46.693,87.667 47.268,87.667 47.413 C 87.667 47.661,87.222 48.480,86.986 48.667 C 86.713 48.883,86.000 50.462,86.000 50.851 C 86.000 51.092,85.847 51.483,85.660 51.721 C 85.221 52.279,84.333 54.837,84.333 55.544 C 84.333 55.843,84.193 56.351,84.021 56.671 C 83.542 57.565,82.836 60.987,82.650 63.321 C 82.558 64.474,82.415 66.054,82.333 66.833 C 81.851 71.394,81.779 73.191,81.992 75.304 C 82.306 78.422,82.449 79.995,82.644 82.500 C 82.740 83.737,82.892 85.125,82.981 85.583 C 83.384 87.656,83.719 88.947,83.948 89.309 C 84.085 89.525,84.260 90.147,84.337 90.692 C 84.470 91.637,85.260 93.991,85.502 94.167 C 85.708 94.316,86.000 94.971,86.000 95.282 C 86.000 95.653,86.751 97.092,87.191 97.565 C 87.368 97.755,87.558 98.099,87.613 98.330 C 87.707 98.723,88.417 99.799,89.230 100.780 C 89.931 101.627,91.938 103.667,92.069 103.667 C 92.144 103.667,92.440 103.861,92.727 104.099 C 93.543 104.774,95.042 105.667,95.360 105.667 C 95.518 105.667,95.692 105.739,95.747 105.828 C 96.192 106.548,101.242 107.080,103.786 106.674 C 105.649 106.377,108.033 105.358,109.330 104.304 C 109.648 104.045,109.992 103.833,110.093 103.833 C 110.195 103.833,110.519 103.533,110.813 103.167 C 111.108 102.800,111.454 102.500,111.582 102.500 C 111.711 102.500,112.079 102.106,112.401 101.625 C 112.722 101.144,113.161 100.563,113.374 100.333 C 113.588 100.104,114.055 99.429,114.413 98.833 C 114.770 98.237,115.161 97.690,115.281 97.617 C 115.401 97.543,115.500 97.372,115.500 97.235 C 115.500 97.098,115.725 96.505,116.000 95.917 C 116.275 95.328,116.500 94.794,116.500 94.728 C 116.500 94.663,116.618 94.480,116.761 94.321 C 116.905 94.162,117.124 93.631,117.248 93.141 C 117.735 91.213,118.034 90.236,118.235 89.917 C 118.475 89.533,118.778 88.032,118.908 86.583 C 118.957 86.033,119.045 85.301,119.104 84.955 L 119.211 84.328 114.897 84.372 L 110.583 84.417 110.532 84.946 C 110.504 85.237,110.373 85.565,110.240 85.675 C 110.108 85.784,110.000 85.951,110.000 86.044 C 110.000 86.414,108.778 90.094,108.603 90.250 C 108.356 90.471,107.333 92.149,107.333 92.333 C 107.333 92.412,107.090 92.644,106.792 92.848 C 106.494 93.053,106.025 93.420,105.750 93.666 C 104.089 95.148,99.018 95.425,97.622 94.110 C 97.509 94.004,97.098 93.700,96.708 93.436 C 96.319 93.171,96.000 92.898,96.000 92.828 C 96.000 92.759,95.665 92.347,95.256 91.914 C 94.847 91.481,94.383 90.779,94.225 90.355 C 94.067 89.931,93.781 89.392,93.590 89.158 C 93.216 88.698,92.808 87.511,92.477 85.917 C 92.363 85.367,92.205 84.872,92.126 84.818 C 91.845 84.625,91.326 81.208,91.223 78.875 L 91.118 76.500 105.299 76.500 C 116.203 76.500,119.509 76.453,119.605 76.299 C 120.058 75.565,119.679 65.134,119.082 61.904 C 118.945 61.163,118.833 60.286,118.833 59.953 C 118.833 59.291,118.463 57.724,118.190 57.230 C 118.018 56.918,117.278 54.242,117.078 53.208 C 117.021 52.910,116.919 52.667,116.853 52.667 C 116.730 52.667,115.859 50.596,115.503 49.458 C 115.395 49.115,115.255 48.833,115.192 48.833 C 115.128 48.833,114.791 48.290,114.442 47.625 C 114.093 46.960,113.552 46.079,113.240 45.667 C 112.928 45.254,112.527 44.654,112.348 44.333 C 112.170 44.012,111.752 43.537,111.419 43.277 C 111.086 43.016,110.745 42.623,110.661 42.402 C 110.577 42.181,110.413 42.000,110.296 42.001 C 110.179 42.001,109.783 41.699,109.417 41.329 C 108.866 40.773,107.895 40.051,106.929 39.477 C 105.260 38.487,102.244 37.947,99.667 38.178 M240.250 38.226 C 238.242 38.661,236.549 39.391,235.534 40.259 C 235.165 40.575,234.800 40.833,234.722 40.833 C 234.328 40.833,230.500 45.097,230.500 45.535 C 230.500 45.666,230.243 46.061,229.930 46.414 C 229.616 46.767,229.241 47.343,229.096 47.694 C 228.952 48.046,228.709 48.633,228.558 49.000 C 228.407 49.367,228.232 49.667,228.169 49.667 C 227.968 49.667,227.167 51.645,227.167 52.141 C 227.167 52.405,227.030 52.801,226.864 53.019 C 226.324 53.727,225.501 56.428,225.499 57.497 C 225.498 57.819,225.396 58.279,225.271 58.519 C 225.004 59.030,224.633 60.696,224.216 63.250 C 223.775 65.954,223.776 79.810,224.217 82.667 C 224.647 85.444,225.016 87.237,225.181 87.341 C 225.260 87.390,225.403 87.990,225.500 88.674 C 225.716 90.212,226.417 92.560,226.763 92.906 C 226.904 93.047,227.063 93.445,227.116 93.790 C 227.232 94.552,227.933 96.100,228.352 96.519 C 228.520 96.687,228.707 97.033,228.767 97.287 C 228.911 97.897,229.457 98.803,230.035 99.388 C 230.291 99.647,230.502 99.984,230.505 100.138 C 230.511 100.471,233.159 103.339,233.458 103.336 C 233.573 103.334,233.667 103.406,233.667 103.494 C 233.667 103.715,236.374 105.500,236.710 105.500 C 236.859 105.500,237.022 105.567,237.072 105.648 C 237.721 106.698,244.659 107.193,247.000 106.357 C 248.413 105.852,249.757 105.200,250.567 104.627 C 250.924 104.374,251.285 104.167,251.370 104.167 C 251.511 104.167,251.851 103.869,253.177 102.583 C 254.256 101.537,254.943 100.724,255.373 99.983 C 255.618 99.561,256.008 99.036,256.240 98.816 C 256.471 98.596,256.662 98.340,256.664 98.245 C 256.669 97.962,257.811 95.665,258.082 95.394 C 258.220 95.256,258.333 95.036,258.333 94.906 C 258.333 94.535,259.190 92.111,259.419 91.833 C 259.635 91.571,259.813 90.854,260.246 88.500 C 260.507 87.085,260.824 84.935,260.830 84.542 C 260.833 84.380,259.860 84.333,256.512 84.333 L 252.191 84.333 252.017 85.208 C 251.921 85.690,251.801 86.357,251.750 86.692 C 251.699 87.026,251.547 87.392,251.412 87.504 C 251.277 87.616,251.167 87.830,251.167 87.979 C 251.166 88.128,250.941 88.725,250.667 89.307 C 250.392 89.888,250.167 90.464,250.167 90.586 C 250.167 90.709,250.035 90.940,249.875 91.100 C 249.715 91.260,249.283 91.785,248.917 92.269 C 246.392 95.595,241.000 95.945,238.000 92.977 C 236.255 91.251,235.827 90.610,235.259 88.875 C 235.102 88.394,234.910 88.000,234.834 88.000 C 234.605 88.000,233.959 85.849,233.810 84.589 C 233.618 82.977,233.477 82.265,233.328 82.167 C 233.144 82.046,232.834 79.298,232.834 77.792 L 232.833 76.500 247.042 76.497 C 254.856 76.496,261.346 76.434,261.463 76.360 C 261.737 76.186,261.658 66.851,261.371 65.583 C 261.267 65.125,261.065 63.887,260.920 62.833 C 260.460 59.472,259.732 55.720,259.477 55.398 C 259.279 55.147,258.333 52.187,258.333 51.817 C 258.333 51.656,258.235 51.425,258.115 51.304 C 257.886 51.074,256.930 49.023,256.749 48.376 C 256.692 48.170,256.554 47.908,256.444 47.793 C 256.103 47.437,255.167 45.898,255.167 45.693 C 255.167 45.586,254.826 45.143,254.410 44.708 C 253.995 44.273,253.539 43.679,253.398 43.389 C 253.257 43.099,252.848 42.658,252.488 42.408 C 252.128 42.159,251.833 41.857,251.833 41.739 C 251.833 41.620,251.702 41.480,251.542 41.428 C 251.381 41.377,250.965 41.071,250.616 40.750 C 250.267 40.429,249.940 40.167,249.890 40.167 C 249.840 40.167,249.478 39.951,249.087 39.687 C 248.696 39.423,248.085 39.113,247.729 38.998 C 247.374 38.883,247.008 38.744,246.917 38.688 C 246.028 38.144,241.938 37.861,240.250 38.226 M326.881 38.320 C 326.311 38.483,325.748 38.693,325.631 38.787 C 325.513 38.880,325.135 39.047,324.792 39.158 C 324.448 39.269,324.167 39.426,324.167 39.509 C 324.167 39.591,323.938 39.776,323.658 39.921 C 322.966 40.279,321.103 42.127,320.768 42.787 C 320.619 43.082,320.351 43.401,320.173 43.497 C 319.994 43.592,319.618 44.154,319.336 44.745 C 319.053 45.337,318.750 45.865,318.662 45.920 C 318.573 45.975,318.294 46.446,318.042 46.968 L 317.583 47.917 317.539 43.789 L 317.494 39.661 313.205 39.706 L 308.917 39.750 308.875 72.461 L 308.832 105.172 313.291 105.128 L 317.750 105.083 317.841 84.000 C 317.937 61.655,317.976 60.586,318.746 59.403 C 318.870 59.212,319.020 58.687,319.079 58.236 C 319.203 57.297,319.961 55.312,320.269 55.124 C 320.382 55.054,320.565 54.717,320.675 54.374 C 320.997 53.369,323.185 50.833,323.730 50.833 C 323.856 50.833,324.044 50.731,324.148 50.605 C 324.252 50.480,324.868 50.248,325.517 50.091 C 328.765 49.301,331.617 50.911,332.737 54.167 C 333.005 54.946,333.274 55.621,333.333 55.667 C 334.035 56.207,334.167 60.625,334.167 83.596 C 334.167 95.170,334.212 104.758,334.268 104.903 C 334.380 105.194,342.850 105.309,343.297 105.026 C 343.546 104.868,343.604 56.005,343.356 55.842 C 343.279 55.791,343.127 54.925,343.017 53.917 C 342.907 52.908,342.671 51.459,342.492 50.695 C 342.313 49.932,342.166 49.107,342.164 48.862 C 342.163 48.617,342.052 48.229,341.919 48.000 C 341.574 47.409,340.805 45.657,340.328 44.375 C 340.217 44.077,340.042 43.831,339.938 43.829 C 339.835 43.826,339.563 43.513,339.333 43.132 C 338.934 42.469,336.961 40.333,336.747 40.333 C 336.691 40.333,336.380 40.131,336.056 39.885 C 333.969 38.292,329.589 37.545,326.881 38.320 M245.857 39.081 C 246.374 39.220,247.011 39.446,247.273 39.583 C 247.536 39.719,247.825 39.832,247.917 39.832 C 248.009 39.833,248.454 40.096,248.905 40.417 C 249.356 40.737,249.787 41.000,249.863 41.000 C 249.939 41.000,250.272 41.300,250.603 41.667 C 250.934 42.033,251.311 42.333,251.440 42.333 C 251.569 42.333,251.743 42.514,251.827 42.734 C 251.911 42.954,252.280 43.376,252.647 43.671 C 253.015 43.966,253.388 44.405,253.477 44.646 C 253.566 44.886,253.905 45.375,254.230 45.732 C 254.556 46.089,255.139 47.026,255.526 47.815 C 255.914 48.604,256.329 49.310,256.449 49.383 C 256.569 49.457,256.667 49.626,256.667 49.759 C 256.667 50.082,257.843 53.059,258.015 53.171 C 258.089 53.219,258.260 53.744,258.396 54.338 C 258.944 56.738,259.182 57.603,259.404 58.000 C 259.669 58.475,259.898 59.678,260.181 62.083 C 260.289 63.000,260.440 64.200,260.515 64.750 C 260.708 66.149,260.907 74.305,260.767 75.051 L 260.652 75.665 246.451 75.707 L 232.250 75.750 232.198 77.250 C 232.110 79.792,232.841 85.352,233.302 85.652 C 233.385 85.706,233.548 86.162,233.665 86.667 C 234.031 88.248,234.363 89.197,234.654 89.487 C 234.809 89.642,235.108 90.194,235.319 90.715 C 235.695 91.642,237.817 94.167,238.220 94.167 C 238.316 94.167,238.557 94.319,238.755 94.505 C 240.884 96.504,246.913 95.813,248.917 93.339 C 249.283 92.887,249.658 92.511,249.750 92.504 C 249.842 92.497,250.217 91.875,250.583 91.121 C 250.950 90.367,251.343 89.675,251.457 89.583 C 251.571 89.492,251.736 89.079,251.824 88.667 C 251.912 88.254,252.157 87.261,252.367 86.460 L 252.750 85.004 256.375 85.002 L 260.000 85.000 260.000 86.071 C 260.000 87.269,259.712 88.787,259.412 89.167 C 259.217 89.413,258.847 90.669,258.419 92.537 C 258.298 93.061,258.080 93.610,257.933 93.757 C 257.787 93.904,257.667 94.097,257.667 94.186 C 257.667 94.274,257.442 94.828,257.167 95.417 C 256.892 96.005,256.667 96.598,256.667 96.735 C 256.667 96.872,256.569 97.043,256.450 97.117 C 256.199 97.271,255.167 98.924,255.167 99.171 C 255.167 99.263,254.792 99.730,254.335 100.210 C 253.878 100.690,253.503 101.176,253.502 101.288 C 253.501 101.401,253.125 101.773,252.667 102.116 C 252.208 102.458,251.833 102.784,251.833 102.841 C 251.833 102.984,250.152 104.115,249.000 104.747 C 246.297 106.228,239.858 106.684,238.592 105.483 C 238.505 105.401,238.317 105.333,238.175 105.332 C 237.460 105.327,235.249 104.013,234.041 102.875 C 233.725 102.577,233.411 102.333,233.343 102.333 C 233.198 102.333,232.167 101.224,232.167 101.068 C 232.167 101.009,231.875 100.670,231.519 100.314 C 231.163 99.958,230.677 99.254,230.438 98.750 C 230.200 98.246,229.938 97.833,229.856 97.833 C 229.671 97.833,228.878 96.245,228.752 95.621 C 228.700 95.366,228.510 95.010,228.328 94.828 C 227.911 94.411,227.362 93.014,227.167 91.871 C 227.084 91.388,226.913 90.889,226.787 90.763 C 226.462 90.439,225.698 87.155,225.498 85.228 C 225.405 84.333,225.264 83.559,225.185 83.508 C 224.187 82.870,224.185 63.122,225.184 62.491 C 225.264 62.441,225.400 61.728,225.486 60.908 C 225.673 59.117,226.413 55.908,226.760 55.378 C 226.897 55.169,227.082 54.605,227.172 54.124 C 227.366 53.083,227.985 51.464,228.252 51.300 C 228.356 51.236,228.537 50.861,228.655 50.466 C 228.982 49.368,229.513 48.293,229.947 47.849 C 230.163 47.628,230.387 47.253,230.445 47.016 C 230.570 46.503,231.328 45.369,231.819 44.960 C 232.010 44.800,232.167 44.575,232.167 44.460 C 232.167 44.344,232.757 43.688,233.477 43.000 C 235.411 41.154,235.989 40.663,236.477 40.456 C 236.719 40.353,237.029 40.183,237.167 40.078 C 238.731 38.883,243.210 38.369,245.857 39.081 M331.982 38.994 C 333.289 39.264,335.180 39.988,335.500 40.342 C 335.546 40.393,335.880 40.655,336.242 40.925 C 336.974 41.471,338.833 43.340,338.833 43.530 C 338.833 43.684,339.562 44.792,340.001 45.306 C 340.185 45.521,340.380 45.896,340.435 46.140 C 340.591 46.825,341.494 49.518,341.776 50.139 C 342.022 50.679,342.129 51.517,342.502 55.833 C 342.624 57.238,342.666 65.488,342.633 81.167 L 342.583 104.417 338.928 104.462 C 336.495 104.492,335.214 104.447,335.095 104.328 C 334.970 104.203,334.915 97.730,334.911 82.783 C 334.906 60.550,334.874 59.402,334.181 56.417 C 334.096 56.050,333.940 55.319,333.835 54.792 C 333.729 54.264,333.545 53.735,333.425 53.616 C 333.305 53.496,332.965 52.933,332.669 52.364 C 332.373 51.795,332.033 51.275,331.914 51.207 C 331.794 51.139,331.429 50.839,331.101 50.541 C 328.295 47.980,322.501 49.324,320.681 52.958 C 320.486 53.348,320.265 53.667,320.190 53.667 C 319.999 53.667,319.234 55.302,319.104 55.989 C 319.045 56.304,318.891 56.679,318.762 56.822 C 318.544 57.065,318.349 57.697,317.702 60.250 C 317.484 61.109,317.434 64.290,317.349 82.833 L 317.250 104.417 313.292 104.461 L 309.333 104.506 309.333 72.416 L 309.333 40.327 312.958 40.372 L 316.583 40.417 316.667 45.201 C 316.745 49.715,316.769 50.000,317.078 50.226 C 317.389 50.453,317.433 50.394,317.961 49.029 C 318.266 48.240,318.662 47.457,318.841 47.290 C 319.020 47.123,319.167 46.875,319.167 46.738 C 319.167 46.377,319.977 44.833,320.166 44.833 C 320.254 44.833,320.486 44.515,320.681 44.125 C 321.154 43.179,322.947 41.271,324.183 40.399 C 326.454 38.796,328.894 38.357,331.982 38.994 M104.398 39.239 C 105.619 39.627,106.999 40.324,107.778 40.946 C 108.160 41.251,108.521 41.500,108.581 41.500 C 108.640 41.500,108.929 41.744,109.221 42.042 C 109.514 42.340,109.940 42.745,110.169 42.942 C 110.397 43.140,110.771 43.569,111.000 43.896 C 111.229 44.223,111.499 44.493,111.599 44.495 C 111.699 44.498,111.924 44.776,112.099 45.113 C 112.415 45.722,113.371 47.258,113.642 47.592 C 113.720 47.688,114.056 48.348,114.389 49.059 C 114.722 49.770,115.108 50.466,115.247 50.605 C 115.386 50.743,115.500 50.987,115.500 51.147 C 115.500 51.492,116.368 53.974,116.819 54.917 C 116.994 55.283,117.210 56.033,117.300 56.583 C 117.575 58.277,118.016 60.225,118.243 60.750 C 118.774 61.974,119.278 69.868,119.065 73.628 L 118.950 75.665 104.850 75.707 L 90.750 75.750 90.702 77.291 C 90.594 80.755,91.504 87.090,92.168 87.501 C 92.249 87.551,92.396 87.953,92.495 88.394 C 92.707 89.341,93.278 90.526,93.617 90.724 C 93.750 90.801,93.999 91.176,94.171 91.557 C 94.494 92.274,95.210 93.167,95.461 93.167 C 95.539 93.167,95.769 93.390,95.972 93.664 C 96.174 93.937,96.582 94.285,96.878 94.437 C 97.174 94.589,97.454 94.769,97.500 94.837 C 98.349 96.098,104.437 95.802,105.920 94.428 C 106.168 94.198,106.508 93.967,106.677 93.913 C 106.845 93.860,107.328 93.333,107.750 92.741 C 108.172 92.150,108.579 91.667,108.655 91.667 C 108.732 91.667,108.907 91.348,109.046 90.958 C 109.439 89.853,110.087 88.380,110.288 88.137 C 110.388 88.016,110.519 87.617,110.578 87.250 C 110.638 86.883,110.765 86.227,110.860 85.792 L 111.033 85.000 114.767 85.000 L 118.500 85.000 118.499 85.458 C 118.498 85.710,118.394 86.116,118.267 86.360 C 118.139 86.604,117.943 87.354,117.830 88.027 C 117.717 88.700,117.560 89.420,117.482 89.627 C 117.404 89.835,117.265 90.466,117.175 91.031 C 117.084 91.596,116.947 92.101,116.871 92.154 C 116.700 92.272,115.500 95.276,115.500 95.585 C 115.500 95.709,115.397 95.913,115.271 96.039 C 115.145 96.165,114.757 96.789,114.408 97.425 C 113.091 99.830,109.401 104.000,108.591 104.000 C 108.537 104.000,108.176 104.203,107.788 104.451 C 104.523 106.542,99.370 106.714,95.299 104.868 C 94.701 104.597,94.161 104.292,94.099 104.192 C 94.037 104.091,93.721 103.883,93.397 103.730 C 93.073 103.576,92.693 103.274,92.552 103.058 C 92.411 102.843,92.203 102.667,92.091 102.667 C 91.848 102.667,89.653 100.290,89.421 99.777 C 89.332 99.579,89.168 99.359,89.057 99.289 C 88.762 99.104,87.729 97.328,87.601 96.787 C 87.541 96.533,87.354 96.187,87.185 96.018 C 86.753 95.586,86.000 93.882,86.000 93.336 C 86.000 93.084,85.858 92.698,85.685 92.478 C 85.238 91.910,84.516 89.486,84.333 87.940 C 84.247 87.220,84.108 86.545,84.023 86.440 C 82.369 84.405,82.359 61.926,84.011 59.906 C 84.091 59.808,84.230 59.079,84.320 58.285 C 84.410 57.491,84.552 56.708,84.635 56.546 C 84.718 56.383,84.875 55.883,84.984 55.435 C 85.094 54.987,85.367 54.275,85.592 53.853 C 85.816 53.431,86.001 52.898,86.002 52.668 C 86.003 52.244,86.742 50.497,86.987 50.337 C 87.198 50.200,87.667 49.212,87.667 48.905 C 87.667 48.610,88.783 46.660,89.059 46.473 C 89.148 46.413,89.303 46.171,89.402 45.936 C 90.050 44.407,93.922 40.846,96.010 39.860 C 98.181 38.835,102.192 38.538,104.398 39.239 M364.912 39.041 C 364.869 39.156,364.815 42.100,364.792 45.583 L 364.750 51.917 360.833 52.000 L 356.917 52.083 356.874 65.457 L 356.831 78.830 364.624 78.873 L 372.417 78.917 372.417 85.167 L 372.417 91.417 360.623 91.459 L 348.830 91.502 348.873 98.293 L 348.917 105.083 361.083 105.083 L 373.250 105.083 373.294 98.542 L 373.337 92.000 377.170 92.000 L 381.002 92.000 380.959 78.625 L 380.917 65.250 373.083 65.167 L 365.250 65.083 365.250 58.917 L 365.250 52.750 377.000 52.667 L 388.750 52.583 388.750 45.750 L 388.750 38.917 376.870 38.874 C 367.454 38.840,364.974 38.875,364.912 39.041 M387.960 39.637 C 388.125 39.743,388.161 41.098,388.127 45.844 L 388.083 51.917 377.083 51.963 C 371.033 51.988,365.915 51.968,365.708 51.918 L 365.333 51.827 365.333 45.761 C 365.333 41.062,365.380 39.676,365.542 39.613 C 365.902 39.472,387.739 39.496,387.960 39.637 M296.000 40.440 C 294.497 40.725,290.532 42.620,289.573 43.513 C 289.383 43.689,289.158 43.835,289.073 43.837 C 288.987 43.839,288.729 43.992,288.500 44.177 C 288.271 44.362,287.690 44.772,287.208 45.088 C 286.727 45.404,286.333 45.738,286.333 45.831 C 286.333 45.924,286.224 46.000,286.091 46.000 C 285.958 46.000,285.474 46.375,285.016 46.833 C 284.558 47.292,284.132 47.667,284.071 47.667 C 283.976 47.667,283.131 48.515,279.008 52.750 C 278.651 53.117,278.217 53.657,278.043 53.952 C 277.870 54.246,277.525 54.646,277.277 54.842 C 277.030 55.037,276.709 55.424,276.565 55.702 C 276.421 55.980,276.040 56.472,275.717 56.795 C 275.394 57.117,275.027 57.615,274.902 57.899 C 274.778 58.184,274.450 58.634,274.174 58.900 C 273.898 59.166,273.522 59.694,273.338 60.074 C 273.154 60.453,272.749 61.042,272.437 61.382 C 272.126 61.723,271.739 62.282,271.578 62.625 C 271.417 62.969,271.083 63.483,270.836 63.767 C 270.589 64.051,270.211 64.651,269.995 65.100 C 269.779 65.549,269.511 65.992,269.400 66.083 C 269.131 66.305,268.167 68.151,268.167 68.445 C 268.167 68.573,268.067 68.715,267.946 68.762 C 267.694 68.858,266.851 70.634,266.408 72.000 C 266.244 72.504,266.040 72.964,265.954 73.021 C 264.552 73.954,264.584 92.254,265.989 93.164 C 266.062 93.211,266.252 93.850,266.410 94.583 C 266.786 96.328,267.679 99.167,267.852 99.167 C 267.926 99.167,268.072 99.484,268.177 99.871 C 268.414 100.752,269.287 102.500,269.489 102.500 C 269.573 102.500,269.724 102.744,269.826 103.042 C 270.022 103.618,270.715 104.500,270.972 104.500 C 271.056 104.500,271.219 104.612,271.333 104.750 C 271.929 105.467,273.950 104.579,275.214 103.044 C 275.573 102.607,275.970 102.191,276.095 102.120 C 276.220 102.048,276.449 101.724,276.603 101.400 C 276.757 101.075,277.086 100.606,277.336 100.357 C 277.585 100.108,278.000 99.472,278.259 98.943 C 278.517 98.415,278.889 97.818,279.085 97.617 C 279.282 97.415,279.668 96.760,279.945 96.161 C 280.222 95.563,280.648 94.858,280.891 94.595 C 281.134 94.333,281.331 94.035,281.329 93.934 C 281.320 93.590,282.416 91.669,282.622 91.668 C 282.735 91.667,282.872 91.460,282.926 91.208 C 283.061 90.586,283.632 89.507,284.095 89.000 C 284.305 88.771,284.531 88.364,284.597 88.095 C 284.663 87.827,285.009 87.115,285.365 86.512 C 285.722 85.910,286.079 85.304,286.159 85.167 C 286.240 85.029,286.555 84.411,286.861 83.792 C 287.167 83.174,287.510 82.668,287.625 82.667 C 287.905 82.666,287.897 83.746,287.614 84.030 C 287.494 84.151,287.300 84.775,287.183 85.417 C 286.731 87.910,286.489 89.475,286.334 90.917 C 286.246 91.742,286.053 93.054,285.907 93.833 C 285.522 95.876,285.523 101.888,285.907 103.167 C 286.059 103.671,286.254 104.414,286.341 104.818 C 286.544 105.759,286.997 106.530,287.490 106.776 C 287.704 106.883,287.930 107.053,287.993 107.155 C 288.374 107.771,290.461 107.599,291.857 106.836 C 292.681 106.385,295.333 103.952,295.333 103.646 C 295.333 103.566,295.444 103.500,295.580 103.500 C 295.716 103.500,295.971 103.216,296.148 102.870 C 296.325 102.523,296.777 101.942,297.151 101.578 C 297.526 101.214,297.833 100.855,297.833 100.780 C 297.833 100.601,298.797 99.203,299.192 98.808 C 299.362 98.638,299.500 98.429,299.500 98.342 C 299.500 98.125,300.495 96.667,300.643 96.667 C 300.708 96.667,300.977 96.213,301.241 95.657 C 301.504 95.102,301.857 94.553,302.023 94.436 C 302.190 94.319,302.508 93.813,302.730 93.311 C 302.952 92.809,303.316 92.177,303.538 91.907 C 303.761 91.637,304.233 90.823,304.588 90.097 C 304.943 89.372,305.406 88.592,305.617 88.365 C 305.828 88.137,306.000 87.849,306.000 87.723 C 306.000 87.441,306.994 85.645,307.276 85.417 C 307.909 84.905,308.401 78.434,307.833 78.083 C 307.742 78.027,307.667 78.092,307.667 78.228 C 307.667 78.365,307.419 78.739,307.115 79.061 C 306.812 79.383,306.418 79.932,306.240 80.281 C 306.062 80.631,305.650 81.192,305.325 81.528 C 304.999 81.864,304.556 82.483,304.340 82.903 C 304.124 83.323,303.857 83.667,303.746 83.667 C 303.636 83.667,303.329 83.985,303.064 84.375 C 302.579 85.089,299.355 88.330,299.128 88.332 C 299.060 88.333,298.639 88.558,298.192 88.833 C 296.832 89.671,294.500 89.044,294.500 87.841 C 294.500 87.697,294.359 87.316,294.188 86.996 C 293.414 85.552,293.409 80.580,294.179 78.889 C 294.356 78.502,294.500 77.969,294.500 77.705 C 294.500 77.114,295.178 75.411,295.746 74.574 C 295.977 74.233,296.167 73.779,296.167 73.565 C 296.167 73.116,296.880 71.430,297.209 71.100 C 297.332 70.978,297.529 70.549,297.648 70.147 C 297.965 69.073,298.870 66.950,299.118 66.697 C 299.236 66.576,299.372 66.276,299.419 66.030 C 299.521 65.503,299.724 64.708,300.192 63.000 C 300.593 61.537,300.547 60.741,299.922 58.250 C 299.692 57.333,299.503 56.358,299.501 56.083 C 299.497 55.431,299.190 54.333,299.011 54.333 C 298.934 54.333,298.822 54.090,298.763 53.792 C 298.703 53.494,298.611 53.045,298.559 52.795 C 298.479 52.414,298.535 52.312,298.902 52.172 C 299.144 52.080,299.509 51.847,299.713 51.655 C 299.917 51.463,300.282 51.201,300.524 51.074 C 301.067 50.789,301.500 49.620,301.500 48.439 C 301.500 47.058,300.955 44.265,300.621 43.930 C 300.508 43.817,300.154 43.149,299.835 42.446 C 299.517 41.742,299.184 41.167,299.097 41.167 C 299.010 41.167,298.765 41.004,298.554 40.805 C 298.163 40.439,296.937 40.263,296.000 40.440 M298.539 41.804 C 299.198 42.491,299.402 42.885,299.946 44.512 C 300.297 45.560,300.656 46.469,300.746 46.533 C 300.835 46.597,300.910 47.324,300.912 48.149 L 300.917 49.649 300.000 50.485 C 299.496 50.944,298.802 51.447,298.458 51.602 C 297.603 51.988,297.911 54.725,299.098 57.291 C 299.815 58.842,299.760 64.313,299.022 64.830 C 298.842 64.956,297.833 67.560,297.833 67.897 C 297.833 68.212,297.366 69.198,297.150 69.339 C 296.919 69.490,296.167 71.320,296.167 71.731 C 296.167 71.945,295.967 72.412,295.724 72.768 C 295.183 73.561,294.500 75.193,294.500 75.696 C 294.500 75.899,294.315 76.332,294.090 76.658 C 293.273 77.837,292.703 82.184,292.994 85.020 C 293.553 90.468,297.123 91.594,301.108 87.578 C 301.306 87.379,301.646 87.074,301.864 86.900 C 302.082 86.726,302.535 86.223,302.869 85.783 C 303.203 85.344,303.669 84.832,303.905 84.646 C 304.140 84.461,304.333 84.239,304.333 84.153 C 304.333 83.917,305.291 82.644,305.668 82.380 C 305.851 82.252,306.000 82.050,306.000 81.931 C 306.000 81.654,307.130 80.167,307.341 80.167 C 307.607 80.167,307.543 83.792,307.274 83.950 C 307.018 84.101,306.001 85.972,306.000 86.292 C 306.000 86.406,305.866 86.634,305.703 86.797 C 305.314 87.186,304.413 88.799,304.280 89.346 C 304.222 89.583,303.974 89.993,303.728 90.258 C 303.482 90.523,303.095 91.155,302.868 91.662 C 302.641 92.169,302.283 92.771,302.073 93.000 C 301.863 93.229,301.493 93.811,301.252 94.294 C 301.011 94.776,300.634 95.365,300.413 95.603 C 300.193 95.840,299.845 96.383,299.639 96.809 C 299.433 97.235,299.024 97.832,298.729 98.137 C 298.435 98.441,298.065 98.966,297.907 99.303 C 297.750 99.641,297.332 100.212,296.978 100.573 C 296.625 100.935,296.289 101.385,296.232 101.573 C 296.176 101.762,295.819 102.228,295.440 102.607 C 295.060 102.987,294.337 103.722,293.833 104.241 C 291.325 106.820,288.582 107.661,287.859 106.072 C 287.757 105.849,287.603 105.667,287.516 105.667 C 286.264 105.667,285.974 97.138,287.008 90.750 C 287.186 89.650,287.332 88.587,287.333 88.389 C 287.333 88.190,287.415 88.001,287.514 87.967 C 287.614 87.934,287.770 87.309,287.862 86.579 C 288.118 84.527,289.007 80.099,289.185 79.989 C 289.377 79.870,289.665 78.185,289.510 78.089 C 289.227 77.914,288.000 79.783,288.000 80.388 C 288.000 80.541,287.859 80.807,287.688 80.979 C 287.516 81.151,287.133 81.770,286.838 82.354 C 286.236 83.542,286.268 83.485,285.340 85.056 C 284.970 85.683,284.667 86.337,284.667 86.509 C 284.667 86.681,284.452 87.068,284.189 87.369 C 283.657 87.979,283.105 89.011,282.937 89.708 C 282.877 89.960,282.759 90.167,282.676 90.167 C 282.480 90.167,281.333 92.051,281.333 92.372 C 281.333 92.508,281.148 92.818,280.921 93.063 C 280.694 93.307,280.234 94.078,279.899 94.776 C 279.563 95.474,279.140 96.193,278.958 96.375 C 278.777 96.556,278.411 97.184,278.146 97.769 C 277.880 98.354,277.605 98.833,277.534 98.833 C 277.462 98.833,277.149 99.265,276.839 99.792 C 276.528 100.319,276.187 100.825,276.081 100.917 C 275.975 101.008,275.595 101.469,275.236 101.941 C 274.449 102.975,273.076 104.087,272.403 104.235 C 271.662 104.398,269.833 102.501,269.833 101.570 C 269.833 101.468,269.662 101.186,269.452 100.942 C 269.038 100.459,268.610 99.433,268.229 98.005 C 268.095 97.504,267.918 97.052,267.836 97.002 C 267.632 96.876,266.833 94.126,266.673 93.000 C 266.427 91.272,266.096 89.583,265.986 89.500 C 265.255 88.944,265.246 76.392,265.977 75.833 C 266.109 75.732,266.670 73.534,266.668 73.126 C 266.666 72.748,267.672 70.500,267.843 70.500 C 267.915 70.500,268.063 70.219,268.172 69.875 C 268.424 69.076,269.313 67.454,269.587 67.294 C 269.702 67.226,269.845 66.976,269.905 66.738 C 270.039 66.205,270.785 65.000,270.982 65.000 C 271.061 65.000,271.221 64.756,271.337 64.458 C 271.597 63.790,272.342 62.631,272.629 62.448 C 272.746 62.373,273.001 61.973,273.196 61.558 C 273.391 61.143,273.808 60.530,274.122 60.197 C 274.437 59.864,274.789 59.365,274.906 59.087 C 275.022 58.810,275.418 58.283,275.785 57.917 C 276.152 57.550,276.500 57.100,276.558 56.916 C 276.616 56.732,277.001 56.254,277.415 55.853 C 277.828 55.453,278.167 55.029,278.167 54.913 C 278.167 54.796,278.448 54.455,278.792 54.155 C 279.135 53.854,279.546 53.398,279.703 53.142 C 280.049 52.579,283.857 48.667,284.059 48.667 C 284.138 48.667,284.558 48.310,284.993 47.875 C 285.842 47.026,286.788 46.265,288.154 45.333 C 288.624 45.012,289.314 44.506,289.687 44.208 C 290.060 43.910,290.457 43.667,290.569 43.667 C 290.682 43.667,291.069 43.444,291.429 43.171 C 291.789 42.899,292.190 42.674,292.320 42.671 C 292.450 42.669,292.687 42.549,292.846 42.405 C 293.276 42.016,296.315 41.015,297.093 41.007 C 297.687 41.001,297.861 41.097,298.539 41.804 M133.664 45.537 C 133.661 50.055,133.907 49.646,131.160 49.703 L 128.917 49.750 128.872 53.625 L 128.827 57.500 126.497 57.500 L 124.167 57.500 124.167 61.750 L 124.167 66.000 126.500 66.000 L 128.833 66.000 128.833 77.745 L 128.833 89.491 131.208 89.537 L 133.583 89.583 133.628 93.458 L 133.673 97.333 135.920 97.333 L 138.167 97.333 138.167 101.163 L 138.167 104.994 138.542 105.085 C 138.748 105.136,141.017 105.156,143.583 105.130 L 148.250 105.083 148.333 101.250 L 148.417 97.417 152.667 97.417 L 156.917 97.417 157.000 101.250 L 157.083 105.083 162.000 105.083 L 166.917 105.083 167.000 101.250 L 167.083 97.417 169.372 97.370 L 171.661 97.324 171.705 93.454 L 171.750 89.583 174.025 89.537 L 176.300 89.491 176.406 89.068 C 176.533 88.561,176.514 42.398,176.387 42.066 C 176.316 41.881,175.783 41.833,173.816 41.833 L 171.333 41.833 171.333 45.750 L 171.333 49.667 168.917 49.667 L 166.500 49.667 166.500 73.167 L 166.500 96.667 164.417 96.667 L 162.333 96.667 162.333 92.750 L 162.333 88.833 160.001 88.833 L 157.668 88.833 157.626 73.208 L 157.583 57.583 155.000 57.583 L 152.417 57.583 152.372 61.458 L 152.327 65.333 150.261 65.333 C 149.124 65.333,148.075 65.379,147.930 65.434 C 147.693 65.525,147.667 66.716,147.667 77.184 L 147.667 88.833 145.583 88.833 L 143.500 88.833 143.500 84.917 L 143.500 81.000 141.167 81.000 L 138.835 81.000 138.792 61.458 L 138.750 41.917 136.208 41.871 L 133.667 41.825 133.664 45.537 M138.126 62.125 L 138.168 81.667 140.584 81.667 L 143.000 81.667 143.000 85.580 L 143.000 89.494 143.375 89.586 C 143.581 89.638,144.762 89.658,146.000 89.631 L 148.250 89.583 148.333 77.833 L 148.417 66.083 150.789 66.037 L 153.160 65.991 153.205 62.204 L 153.250 58.417 155.042 58.369 C 156.413 58.333,156.834 58.372,156.835 58.536 C 156.836 58.654,156.835 65.560,156.833 73.883 C 156.831 84.097,156.887 89.121,157.004 89.341 C 157.164 89.639,157.367 89.667,159.419 89.667 L 161.661 89.667 161.705 93.542 L 161.750 97.417 163.917 97.436 C 165.108 97.447,166.179 97.466,166.295 97.478 C 166.460 97.495,166.497 98.259,166.462 100.958 L 166.417 104.417 162.417 104.463 C 157.123 104.524,157.667 104.990,157.667 100.386 L 157.667 96.662 152.625 96.706 L 147.583 96.750 147.500 100.583 L 147.417 104.417 143.250 104.417 L 139.083 104.417 139.000 100.583 L 138.917 96.750 136.583 96.667 L 134.250 96.583 134.205 92.708 L 134.161 88.833 131.830 88.833 L 129.500 88.833 129.500 77.083 L 129.500 65.333 127.250 65.333 L 125.000 65.333 125.000 61.833 L 125.000 58.333 126.986 58.333 C 129.778 58.333,129.500 58.775,129.500 54.333 C 129.500 49.885,129.209 50.333,132.097 50.333 L 134.167 50.333 134.167 46.528 C 134.167 44.435,134.219 42.670,134.283 42.606 C 134.347 42.542,135.228 42.511,136.241 42.537 L 138.083 42.583 138.126 62.125 M175.667 65.662 L 175.667 88.824 173.458 88.870 L 171.250 88.917 171.205 92.792 L 171.161 96.667 169.163 96.667 L 167.165 96.667 167.208 73.542 L 167.250 50.417 169.542 50.370 L 171.833 50.324 171.833 46.523 C 171.833 44.433,171.883 42.672,171.944 42.611 C 172.006 42.550,172.868 42.500,173.861 42.500 L 175.667 42.500 175.667 65.662 M100.083 49.330 C 99.010 49.490,97.500 49.972,97.500 50.155 C 97.500 50.233,97.323 50.342,97.106 50.396 C 96.560 50.533,94.525 52.565,94.233 53.266 C 94.101 53.582,93.847 53.986,93.670 54.164 C 93.229 54.605,92.722 55.633,92.488 56.561 C 92.381 56.986,92.232 57.333,92.157 57.333 C 91.644 57.333,90.932 61.208,90.726 65.126 L 90.618 67.169 100.851 67.126 L 111.083 67.083 111.050 65.667 C 111.031 64.887,110.940 63.688,110.847 63.000 C 110.754 62.313,110.632 61.319,110.577 60.792 C 110.521 60.264,110.369 59.726,110.238 59.595 C 110.107 59.464,110.000 59.238,110.000 59.092 C 110.000 58.946,109.805 58.285,109.566 57.622 C 109.328 56.959,109.059 56.098,108.969 55.708 C 108.880 55.319,108.746 55.000,108.673 55.000 C 108.549 55.000,107.742 53.715,107.180 52.625 C 107.050 52.373,106.879 52.167,106.800 52.167 C 106.651 52.167,105.750 51.300,105.643 51.055 C 105.242 50.130,101.828 49.071,100.083 49.330 M241.205 49.313 C 240.814 49.383,240.405 49.528,240.297 49.637 C 240.189 49.745,239.973 49.833,239.819 49.833 C 238.615 49.833,235.000 53.702,235.000 54.990 C 235.000 55.087,234.927 55.167,234.837 55.167 C 234.567 55.167,234.030 56.385,233.743 57.648 C 233.595 58.300,233.416 58.833,233.346 58.833 C 232.969 58.833,232.170 63.668,232.168 65.960 L 232.167 67.169 242.611 67.126 L 253.056 67.083 253.017 65.833 C 252.995 65.146,252.907 64.558,252.822 64.528 C 252.737 64.497,252.667 64.230,252.667 63.935 C 252.667 63.639,252.509 62.577,252.316 61.574 C 252.123 60.571,251.897 59.300,251.814 58.750 C 251.731 58.200,251.552 57.667,251.415 57.565 C 251.278 57.463,251.167 57.276,251.167 57.148 C 251.166 57.021,250.941 56.441,250.667 55.860 C 250.392 55.279,250.167 54.698,250.167 54.568 C 250.167 54.439,250.035 54.198,249.875 54.032 C 249.475 53.620,248.579 52.315,248.449 51.956 C 248.390 51.794,248.165 51.594,247.948 51.512 C 247.731 51.429,247.359 51.130,247.120 50.847 C 246.120 49.658,243.333 48.935,241.205 49.313 M244.178 50.102 C 245.982 50.637,247.922 52.176,248.746 53.726 C 249.342 54.847,249.564 55.202,249.875 55.528 C 250.035 55.696,250.167 55.968,250.167 56.133 C 250.167 56.298,250.390 57.067,250.663 57.841 C 250.937 58.616,251.162 59.394,251.163 59.570 C 251.165 59.746,251.275 60.010,251.407 60.156 C 251.672 60.449,252.287 65.779,252.110 66.241 C 252.020 66.475,251.004 66.498,242.463 66.460 L 232.917 66.417 232.857 65.833 C 232.786 65.130,233.159 62.000,233.314 62.000 C 233.452 62.000,233.833 60.389,233.833 59.804 C 233.833 59.178,234.463 57.227,234.762 56.929 C 234.901 56.789,235.164 56.242,235.346 55.713 C 235.654 54.817,236.249 53.753,236.769 53.167 C 236.892 53.029,237.226 52.635,237.513 52.292 C 237.800 51.948,238.137 51.667,238.261 51.667 C 238.386 51.667,238.559 51.535,238.646 51.375 C 238.862 50.977,240.311 50.267,241.417 50.017 C 242.442 49.786,243.189 49.809,244.178 50.102 M102.929 50.275 C 103.380 50.427,104.023 50.764,104.357 51.025 C 104.691 51.286,105.046 51.500,105.145 51.500 C 105.244 51.500,105.453 51.706,105.609 51.958 C 105.765 52.210,106.168 52.717,106.505 53.083 C 106.842 53.450,107.409 54.387,107.765 55.167 C 108.121 55.946,108.507 56.658,108.622 56.750 C 108.737 56.842,108.899 57.254,108.982 57.667 C 109.065 58.079,109.328 59.256,109.566 60.282 C 109.805 61.308,110.000 62.333,110.000 62.560 C 110.000 62.787,110.091 63.002,110.201 63.039 C 110.335 63.084,110.425 63.679,110.471 64.803 L 110.539 66.500 100.853 66.500 L 91.167 66.500 91.167 65.363 C 91.167 63.605,91.811 60.073,92.176 59.833 C 92.246 59.787,92.427 59.150,92.578 58.418 C 92.729 57.685,93.032 56.785,93.250 56.418 C 93.469 56.051,93.918 55.206,94.248 54.541 C 94.579 53.876,95.071 53.168,95.341 52.968 C 95.612 52.768,95.833 52.514,95.833 52.405 C 95.833 52.186,96.878 51.333,97.147 51.333 C 97.240 51.333,97.381 51.219,97.459 51.079 C 97.938 50.224,101.301 49.730,102.929 50.275 M364.706 59.208 L 364.750 65.750 372.500 65.833 L 380.250 65.917 380.250 78.583 L 380.250 91.250 376.794 91.295 L 373.337 91.340 373.294 84.795 L 373.250 78.250 365.333 78.167 L 357.417 78.083 357.374 65.583 C 357.350 58.708,357.366 52.990,357.410 52.875 C 357.470 52.717,358.360 52.667,361.076 52.667 L 364.663 52.667 364.706 59.208 M295.632 53.627 C 295.384 53.746,294.959 54.067,294.687 54.339 C 294.415 54.611,294.126 54.833,294.045 54.833 C 293.965 54.833,293.613 55.095,293.264 55.415 C 292.915 55.734,292.375 56.153,292.064 56.345 C 291.754 56.537,291.406 56.819,291.292 56.973 C 291.177 57.126,290.761 57.461,290.367 57.717 C 289.973 57.973,289.608 58.291,289.557 58.424 C 289.506 58.558,289.379 58.667,289.274 58.668 C 289.169 58.669,288.694 59.026,288.217 59.460 C 286.760 60.789,286.121 61.333,286.017 61.333 C 285.925 61.333,285.220 61.994,283.392 63.792 C 282.996 64.181,282.615 64.501,282.544 64.502 C 282.358 64.506,279.948 67.003,279.612 67.542 C 279.455 67.794,279.234 68.002,279.121 68.005 C 279.009 68.007,278.729 68.278,278.500 68.607 C 278.271 68.936,277.727 69.563,277.292 69.999 C 276.856 70.435,276.500 70.861,276.500 70.945 C 276.500 71.029,276.211 71.408,275.858 71.786 C 275.506 72.164,275.085 72.761,274.923 73.112 C 274.762 73.463,274.540 73.825,274.431 73.917 C 274.103 74.191,273.210 75.878,273.089 76.451 C 273.028 76.744,272.843 77.157,272.680 77.367 C 271.064 79.449,270.521 88.977,271.899 91.080 C 272.646 92.220,274.011 92.180,275.245 90.982 C 275.613 90.625,276.003 90.333,276.112 90.333 C 276.221 90.333,276.358 90.185,276.415 90.005 C 276.473 89.824,276.801 89.430,277.144 89.130 C 277.488 88.829,277.944 88.321,278.159 88.000 C 278.374 87.679,278.782 87.182,279.067 86.895 C 279.351 86.607,279.846 85.947,280.167 85.426 C 280.487 84.905,280.881 84.406,281.042 84.317 C 281.202 84.228,281.333 84.070,281.333 83.967 C 281.333 83.752,282.349 82.111,282.531 82.030 C 282.597 82.001,282.931 81.420,283.272 80.739 C 283.613 80.057,283.951 79.500,284.024 79.500 C 284.096 79.500,284.565 78.638,285.066 77.583 C 285.567 76.529,286.057 75.667,286.155 75.667 C 286.253 75.667,286.333 75.515,286.333 75.329 C 286.333 74.908,287.298 72.962,287.591 72.791 C 287.710 72.721,287.860 72.421,287.924 72.124 C 288.059 71.503,288.928 69.715,289.253 69.389 C 289.374 69.269,289.525 68.926,289.589 68.627 C 289.734 67.946,290.508 66.333,290.689 66.333 C 290.763 66.333,290.946 65.913,291.096 65.399 C 291.429 64.252,292.313 62.333,292.508 62.333 C 292.587 62.333,292.704 62.052,292.768 61.708 C 292.913 60.937,293.717 59.117,294.167 58.546 C 294.350 58.313,294.500 57.946,294.500 57.731 C 294.500 57.372,295.284 55.525,295.518 55.333 C 296.230 54.751,296.327 53.290,295.632 53.627 M294.500 55.978 C 294.500 56.148,294.360 56.467,294.189 56.686 C 293.781 57.208,292.833 59.383,292.833 59.797 C 292.833 59.976,292.683 60.313,292.500 60.546 C 292.050 61.117,291.246 62.937,291.102 63.709 C 291.037 64.053,290.838 64.471,290.659 64.638 C 290.327 64.948,289.500 66.800,289.500 67.235 C 289.500 67.368,289.395 67.581,289.267 67.709 C 288.930 68.046,288.061 69.824,287.924 70.457 C 287.860 70.755,287.710 71.055,287.591 71.124 C 287.379 71.247,286.333 73.337,286.333 73.637 C 286.333 73.720,286.187 73.975,286.008 74.202 C 285.829 74.430,285.377 75.310,285.004 76.157 C 284.631 77.005,284.142 77.939,283.918 78.234 C 283.694 78.528,283.354 79.120,283.164 79.551 C 282.974 79.981,282.649 80.515,282.442 80.739 C 282.235 80.962,281.853 81.565,281.592 82.080 C 281.332 82.595,280.899 83.252,280.629 83.540 C 280.360 83.828,279.962 84.415,279.744 84.844 C 279.527 85.274,279.233 85.670,279.091 85.724 C 278.949 85.779,278.612 86.171,278.343 86.596 C 278.073 87.021,277.548 87.629,277.176 87.947 C 276.804 88.265,276.500 88.597,276.500 88.684 C 276.500 89.653,273.461 91.486,272.799 90.916 C 271.394 89.708,271.227 81.237,272.577 79.667 C 272.696 79.529,272.907 78.967,273.047 78.417 C 273.358 77.194,274.124 75.506,274.419 75.393 C 274.539 75.347,274.686 75.108,274.747 74.863 C 274.880 74.323,275.810 72.833,276.014 72.833 C 276.094 72.833,276.306 72.552,276.486 72.208 C 276.665 71.865,277.110 71.246,277.475 70.833 C 279.406 68.653,282.404 65.500,282.546 65.500 C 282.601 65.500,283.202 64.956,283.882 64.292 C 285.402 62.808,287.437 61.000,287.588 61.000 C 287.649 61.000,287.902 60.794,288.149 60.542 C 288.396 60.290,289.045 59.732,289.591 59.303 C 290.137 58.873,290.958 58.213,291.417 57.835 C 293.704 55.951,294.080 55.667,294.282 55.667 C 294.402 55.667,294.500 55.807,294.500 55.978 M372.294 98.292 L 372.250 104.417 361.250 104.463 C 355.200 104.488,350.081 104.468,349.875 104.418 L 349.500 104.327 349.500 98.247 L 349.500 92.167 360.919 92.167 L 372.337 92.167 372.294 98.292 " stroke="none" fill="#1f1f1f" fill-rule="evenodd"></path></g></svg>