<?xml version="1.0" standalone="no"?>
<!DOCTYPE svg PUBLIC "-//W3C//DTD SVG 20010904//EN"
 "http://www.w3.org/TR/2001/REC-SVG-20010904/DTD/svg10.dtd">
<svg version="1.0" xmlns="http://www.w3.org/2000/svg"
 width="720.000000pt" height="720.000000pt" viewBox="0 0 720.000000 720.000000"
 preserveAspectRatio="xMidYMid meet">

<g transform="translate(0.000000,720.000000) scale(0.100000,-0.100000)"
fill="#000000" stroke="none">
<path d="M4445 6279 c-60 -4 -137 -12 -170 -19 -33 -6 -86 -15 -117 -21 -132
-22 -268 -76 -408 -163 -185 -114 -397 -299 -462 -401 -14 -22 -35 -50 -47
-62 -46 -48 -121 -202 -128 -263 -7 -59 -8 -60 -63 -92 -144 -83 -306 -252
-422 -438 -67 -108 -79 -131 -121 -235 -56 -136 -61 -169 -62 -360 0 -162 2
-182 18 -198 12 -12 17 -28 14 -43 -2 -14 1 -28 7 -32 14 -9 36 -71 36 -100 0
-12 -8 -23 -20 -27 -29 -9 -70 -67 -77 -109 -6 -40 -14 -48 -58 -64 l-30 -10
37 -1 c33 -1 38 -4 49 -38 6 -21 16 -43 21 -50 11 -14 1 -53 -13 -53 -5 0 -9
-4 -9 -9 0 -6 12 -4 27 4 32 17 54 7 140 -62 30 -24 66 -49 81 -57 35 -17 226
-82 272 -91 42 -9 102 -38 119 -58 10 -12 6 -19 -22 -36 -45 -28 -71 -27 -96
5 -12 16 -34 27 -58 31 -21 3 -50 17 -64 30 -21 20 -35 24 -74 22 -31 -2 -50
1 -53 9 -8 25 -58 42 -93 32 -23 -7 -45 -6 -73 4 -24 7 -78 12 -131 11 -73 -2
-92 1 -102 14 -11 14 -12 13 -13 -6 0 -20 -5 -23 -37 -23 -21 0 -45 -8 -56
-17 -10 -10 -36 -18 -56 -19 -22 0 -51 -9 -68 -22 -17 -12 -45 -22 -62 -22
-22 0 -36 -8 -53 -30 -13 -19 -31 -30 -46 -30 -29 0 -82 -51 -82 -78 0 -14 -9
-22 -30 -27 -37 -8 -70 -48 -70 -85 0 -15 -7 -33 -15 -40 -22 -18 -19 -195 4
-235 10 -16 23 -52 29 -80 45 -197 87 -357 106 -395 16 -34 33 -51 71 -72 54
-29 200 -78 233 -78 51 0 62 -16 107 -155 34 -101 100 -250 132 -293 13 -18
41 -41 61 -51 102 -52 168 -39 382 75 96 51 113 54 333 54 203 0 207 0 221
-22 18 -30 43 -119 52 -188 7 -59 50 -160 83 -198 23 -27 76 -46 149 -56 41
-5 62 -3 97 13 69 31 171 108 223 169 26 30 58 67 72 82 14 15 39 43 57 62 30
33 35 35 120 41 151 11 273 42 337 84 90 60 197 175 242 259 14 27 30 53 35
58 5 5 56 10 115 10 l106 1 34 40 c19 22 39 55 45 74 6 18 28 51 48 72 52 53
68 105 52 171 -6 29 -18 59 -25 68 -8 8 -16 40 -18 71 -8 98 -70 152 -183 157
-57 3 -170 10 -196 12 -3 0 -11 10 -16 23 -34 75 -149 181 -319 295 -81 54
-206 179 -254 254 -35 53 -80 154 -80 177 0 4 49 25 110 45 176 58 275 135
365 284 43 72 85 192 85 245 0 15 8 30 19 36 24 13 34 79 21 134 -7 25 -28 61
-51 87 -25 28 -35 46 -28 51 7 4 -5 26 -34 63 -61 74 -66 84 -82 171 -40 206
-139 359 -297 459 -32 20 -58 41 -58 46 0 5 17 12 38 15 20 3 64 12 97 20 33
8 105 23 160 35 55 12 111 25 125 29 14 5 50 14 80 21 73 16 231 65 256 78 10
6 64 33 119 59 119 56 219 126 374 259 152 131 212 210 303 404 50 106 30 189
-56 233 -30 16 -56 19 -129 18 -138 -1 -427 -65 -597 -130 -41 -16 -86 -32
-100 -36 -14 -4 -78 -32 -143 -63 -64 -30 -120 -52 -124 -49 -3 4 -1 17 5 30
36 72 63 146 68 191 11 95 -28 110 -241 95z m191 -50 c30 -25 6 -100 -84 -263
-31 -57 -48 -76 -94 -105 -82 -52 -283 -189 -309 -212 -12 -10 -25 -19 -29
-19 -10 0 -200 -190 -237 -237 -42 -53 -77 -112 -70 -119 3 -3 18 14 35 38 43
62 235 249 317 308 39 28 115 80 170 117 193 127 205 134 298 179 17 8 39 20
47 25 8 5 35 18 60 29 25 11 54 25 64 31 36 21 210 83 361 129 194 58 469 91
523 61 31 -17 55 -75 47 -115 -12 -63 -59 -182 -93 -236 -47 -74 -257 -281
-364 -358 -134 -96 -365 -205 -548 -256 -84 -24 -332 -82 -450 -106 -118 -23
-170 -38 -170 -49 0 -3 11 -8 25 -9 59 -5 188 -92 254 -172 67 -80 115 -185
136 -295 20 -108 30 -137 65 -190 15 -22 39 -61 54 -87 14 -25 37 -55 50 -65
42 -34 62 -149 26 -147 -13 1 -19 -19 -28 -88 -12 -88 -38 -156 -98 -255 -59
-98 -217 -209 -354 -248 -123 -35 -125 -39 -91 -133 34 -94 119 -214 200 -287
19 -16 39 -35 45 -41 12 -11 76 -55 130 -88 17 -11 61 -44 98 -73 158 -128
252 -301 264 -486 7 -105 -8 -193 -55 -325 -42 -117 -73 -165 -165 -259 -89
-89 -145 -121 -259 -147 -57 -13 -188 -31 -214 -28 -16 1 -12 19 8 41 11 12
18 25 14 29 -7 7 -58 -47 -170 -178 -184 -217 -282 -277 -408 -251 -102 22
-144 77 -172 226 -9 49 -30 134 -46 189 -16 56 -35 126 -43 156 -8 30 -19 74
-25 96 -38 144 -33 239 13 264 30 15 46 6 46 -26 0 -33 17 -64 35 -64 17 0 20
16 5 25 -5 3 -10 30 -10 60 0 43 5 59 23 76 31 29 66 41 103 34 41 -7 47 -24
28 -76 -14 -43 -10 -109 7 -109 5 0 9 17 9 38 0 42 28 110 54 132 29 23 94 15
127 -16 71 -68 92 -188 69 -388 -9 -77 -10 -118 -3 -131 16 -27 47 235 40 330
-5 73 -39 168 -69 198 -46 47 -120 63 -167 37 -35 -18 -51 -6 -51 40 0 33 6
48 29 71 16 16 36 29 44 29 14 0 118 72 165 114 28 26 152 186 152 197 0 11
124 49 158 49 51 0 153 -23 168 -37 8 -8 36 -26 62 -40 26 -13 70 -49 98 -79
56 -58 89 -74 59 -26 -21 32 -50 60 -102 99 -21 15 -40 30 -43 33 -48 51 -239
86 -329 60 -32 -9 -33 -8 -28 15 7 40 -5 29 -53 -47 -25 -40 -88 -116 -140
-169 -74 -74 -114 -106 -180 -141 -110 -59 -203 -99 -260 -110 -151 -30 -224
-38 -344 -39 -154 0 -218 18 -249 70 -14 25 -23 61 -14 61 1 0 20 7 42 15 l40
14 -50 -2 c-45 -2 -50 0 -58 24 -17 45 -1 78 46 100 37 17 39 18 11 13 -61
-10 -48 50 21 98 48 33 134 54 275 67 191 19 273 53 435 183 70 56 155 149
155 171 0 14 -21 7 -38 -15 -19 -24 -97 -102 -135 -135 -121 -105 -293 -173
-443 -173 l-41 0 -7 65 c-4 36 -4 71 0 77 4 6 1 34 -6 62 -12 50 -11 55 14 94
34 54 34 86 -1 109 -36 24 -115 55 -226 88 -48 15 -109 36 -135 47 -48 21
-127 79 -150 110 -7 10 -21 18 -30 18 -13 1 -9 7 13 25 37 30 27 43 -19 21
-45 -21 -45 -21 -62 19 -18 44 -12 55 29 56 27 0 29 2 12 9 -11 5 -27 11 -37
14 -14 4 -15 11 -7 48 8 32 22 54 56 85 37 35 44 46 38 65 -16 53 -17 78 -3
78 21 0 38 -21 38 -48 0 -25 34 -44 100 -57 l35 -6 0 -80 c0 -80 0 -81 38
-115 37 -34 39 -35 116 -33 72 3 82 0 129 -29 85 -52 95 -52 151 6 27 28 66
58 87 67 21 9 54 28 73 42 32 25 42 27 116 25 l80 -1 -80 18 c-93 21 -133 36
-157 58 -28 26 -21 2 9 -29 21 -23 25 -32 17 -45 -20 -33 -85 -56 -164 -61
-64 -4 -83 -1 -119 18 l-43 22 -37 -36 c-51 -50 -101 -50 -157 -2 -37 32 -39
36 -38 93 2 91 39 145 138 197 40 21 63 26 125 27 57 0 70 3 53 10 -38 15 -95
16 -142 3 -50 -15 -53 -14 -70 39 -23 71 -97 137 -155 137 -55 0 -115 -60
-115 -115 0 -33 -14 -39 -50 -20 -40 21 -45 45 -45 210 0 116 4 154 24 224 54
195 124 329 262 501 127 158 226 239 384 315 41 20 75 39 75 41 0 3 -19 4 -42
2 -42 -3 -43 -2 -40 27 4 50 79 189 148 277 125 157 216 244 374 355 256 180
435 244 735 263 159 10 219 7 241 -11z m-1976 -2128 c0 -6 -4 -12 -9 -15 -5
-4 -12 -24 -16 -47 -6 -34 -3 -44 15 -64 21 -22 21 -25 7 -40 -13 -12 -14 -22
-6 -42 12 -32 6 -39 -25 -25 -44 20 -46 172 -3 220 21 23 37 29 37 13z m129
-109 c12 -22 -21 -102 -42 -102 -28 0 -73 74 -59 97 7 10 35 19 74 22 10 0 22
-7 27 -17z m-231 -15 c3 -14 -1 -18 -20 -15 -12 2 -24 11 -26 21 -3 14 1 18
20 15 12 -2 24 -11 26 -21z m-154 -679 c21 -30 20 -51 -3 -72 -19 -17 -20 -17
-31 6 -7 13 -22 30 -33 39 -28 23 -16 49 22 49 20 0 35 -8 45 -22z m119 5 c4
-2 7 -26 7 -53 0 -45 -3 -50 -25 -56 -14 -3 -37 -3 -51 0 -25 7 -26 9 -19 59
4 29 9 56 12 60 5 8 58 1 76 -10z m-248 -9 c14 -14 14 -19 2 -33 -8 -9 -17
-28 -21 -43 -7 -31 -14 -34 -40 -15 -24 18 -25 76 -1 93 25 18 40 18 60 -2z
m396 -30 c11 -13 11 -20 -2 -42 -16 -30 -70 -42 -95 -21 -14 12 -19 60 -7 72
13 14 91 7 104 -9z m-486 -37 c8 -24 6 -31 -10 -43 -32 -23 -78 -14 -89 18
-13 38 7 60 53 56 29 -2 38 -8 46 -31z m616 2 c11 -22 -11 -73 -36 -83 -23 -8
-75 21 -75 42 0 59 84 91 111 41z m-457 -11 c10 -51 25 -260 19 -274 -8 -20
-25 -13 -40 17 -13 28 -37 243 -29 265 9 23 45 17 50 -8z m-305 -17 c37 -37 2
-81 -55 -67 -36 9 -32 64 6 79 24 9 29 8 49 -12z m879 -13 c22 -22 14 -74 -13
-92 -39 -26 -64 -20 -80 16 -19 46 5 88 50 88 17 0 36 -5 43 -12z m-467 -12
c24 -10 40 -11 61 -4 20 7 37 7 58 -2 17 -7 45 -10 64 -7 26 4 39 0 59 -19 16
-15 38 -24 58 -24 23 0 40 -9 58 -28 14 -16 33 -31 41 -34 8 -3 21 -25 28 -48
11 -35 10 -46 -3 -72 -8 -17 -15 -39 -15 -48 0 -9 -15 -24 -34 -33 -19 -8 -42
-30 -52 -46 -16 -27 -24 -31 -63 -31 -32 0 -53 -7 -79 -27 -28 -21 -46 -26
-92 -27 -35 -1 -64 -7 -75 -16 -18 -15 -43 -17 -255 -20 -181 -2 -199 -1 -243
12 -69 20 -104 46 -127 93 -17 34 -19 48 -11 64 6 11 11 33 11 50 0 17 4 31 9
31 5 0 18 20 29 44 14 28 29 46 45 50 13 3 32 21 43 41 15 28 25 35 49 35 16
0 39 7 49 15 11 8 33 15 49 15 16 0 44 9 61 19 19 12 41 17 57 14 22 -4 27
-13 37 -62 7 -31 12 -69 12 -84 0 -40 30 -107 49 -108 50 -4 70 16 66 64 -1
18 -6 71 -10 120 -8 83 -7 87 12 87 12 0 36 -6 54 -14z m-507 -59 c9 -34 -11
-57 -48 -57 -49 0 -65 55 -25 84 26 18 65 4 73 -27z m1086 24 c0 -21 -16 -30
-42 -23 -24 6 -23 15 5 28 32 17 37 16 37 -5z m-30 -61 c21 -11 35 -60 25 -90
-6 -19 -12 -20 -53 -14 -71 9 -88 40 -51 88 21 27 48 33 79 16z m-1156 -39
c14 -16 16 -26 9 -48 -8 -24 -16 -28 -51 -31 -31 -2 -44 1 -48 12 -10 26 4 62
28 74 33 15 43 14 62 -7z m1137 -100 c16 -13 23 -29 23 -55 0 -55 -40 -72 -89
-40 -31 20 -33 62 -5 92 25 27 41 28 71 3z m-1191 -11 c40 -40 19 -80 -42 -80
-37 0 -38 1 -38 34 0 25 7 39 22 50 29 20 34 20 58 -4z m1099 -99 c10 -6 2
-16 -32 -40 -52 -35 -67 -38 -67 -14 0 42 63 77 99 54z m-1091 -17 c12 -8 22
-23 22 -32 -1 -16 -60 -62 -80 -62 -13 0 -30 34 -30 59 0 19 34 51 55 51 6 0
21 -7 33 -16z m956 -77 c34 -52 -23 -122 -83 -101 -21 8 -27 17 -29 50 -4 51
16 74 63 74 25 0 39 -6 49 -23z m-876 -22 c12 -11 11 -17 -4 -41 -24 -37 -32
-43 -55 -37 -19 5 -49 39 -49 55 0 5 9 17 21 29 22 22 61 20 87 -6z m714 -28
c4 -6 8 -24 8 -39 0 -52 -80 -78 -120 -38 -29 29 -25 57 13 81 34 21 84 19 99
-4z m-616 -17 c14 -14 4 -80 -13 -87 -21 -8 -83 23 -83 42 0 38 70 71 96 45z
m435 -3 c24 -19 32 -63 13 -81 -18 -19 -85 -21 -102 -4 -17 17 -15 58 5 80 18
21 60 23 84 5z m-310 -7 c14 -8 19 -21 19 -50 0 -39 -1 -40 -37 -40 -61 0 -94
48 -57 84 18 18 47 20 75 6z m167 -18 c17 -22 15 -69 -4 -76 -51 -20 -114 4
-114 43 0 53 83 76 118 33z m2742 18 c74 1 118 -20 156 -78 18 -26 20 -39 14
-69 -8 -33 -5 -41 21 -70 24 -28 29 -42 29 -87 0 -43 -6 -61 -29 -94 -17 -22
-39 -43 -50 -47 -12 -3 -21 -15 -21 -26 0 -36 -27 -86 -59 -109 -30 -21 -39
-22 -117 -15 l-85 7 6 41 c4 23 11 47 15 52 10 15 30 170 30 240 0 38 -11 94
-30 155 -16 52 -30 99 -30 104 0 4 19 5 43 1 23 -3 71 -6 107 -5z m-3174 -50
c10 0 28 -10 42 -22 17 -17 42 -25 95 -31 105 -12 185 -18 242 -17 28 0 81 0
118 0 42 0 80 6 99 16 21 11 44 14 77 9 39 -5 52 -2 82 18 27 19 50 24 93 25
52 0 57 -1 54 -20 -4 -28 -118 -73 -252 -100 -137 -27 -426 -20 -545 13 -98
28 -167 64 -175 92 -12 44 -8 49 24 32 16 -8 37 -15 46 -15z m81 -128 c51 -14
71 -25 80 -43 11 -21 18 -69 10 -69 -13 0 -120 35 -154 50 -31 15 -44 28 -53
54 -15 46 -5 62 25 42 13 -9 55 -24 92 -34z m833 -15 c0 -20 -25 1 -28 24 -2
23 -2 23 13 5 8 -11 15 -24 15 -29z m-80 -9 c-1 -31 -1 -32 -15 -14 -19 25
-19 46 0 46 10 0 15 -10 15 -32z m-106 -4 c9 -24 7 -54 -4 -54 -5 0 -10 9 -10
19 0 11 -3 26 -6 35 -3 9 -2 16 4 16 5 0 13 -7 16 -16z m-107 -31 c13 -37 6
-53 -22 -53 -18 0 -25 7 -30 30 -8 35 0 50 25 50 11 0 22 -11 27 -27z m-328
-14 c21 -60 5 -70 -22 -14 -21 43 -21 45 -3 45 8 0 19 -14 25 -31z m161 -20
c0 -10 -5 -21 -10 -24 -13 -8 -33 44 -25 64 6 14 8 13 21 -3 8 -11 14 -28 14
-37z m60 15 c0 -13 -4 -24 -9 -24 -13 0 -24 37 -16 50 10 16 25 1 25 -26z
m413 -16 c5 -37 0 -51 -14 -43 -12 8 -12 75 0 75 5 0 11 -15 14 -32z m815 5
c-2 -23 -10 -29 -41 -35 -54 -11 -95 -34 -102 -58 -4 -11 -27 -30 -51 -42 -68
-31 -79 -55 -78 -163 0 -65 8 -117 27 -188 15 -55 27 -103 27 -108 0 -38 -195
52 -281 130 -80 71 -137 178 -152 284 -5 33 -2 40 21 55 15 9 36 25 46 34 13
12 36 18 70 18 128 0 379 43 456 78 59 27 62 27 58 -5z m-1664 -19 c44 -14 88
-29 96 -34 19 -9 35 -53 27 -74 -6 -14 -14 -13 -78 10 -40 14 -77 30 -83 35
-6 5 -19 15 -28 22 -17 12 -36 67 -23 67 4 0 44 -12 89 -26z m766 -61 c0 -27
-19 -41 -31 -22 -5 8 -9 32 -9 54 l0 40 20 -25 c11 -14 20 -35 20 -47z m-94 1
c7 -47 -1 -68 -16 -44 -13 20 -13 103 -1 95 6 -3 13 -26 17 -51z m371 0 c5
-16 -134 -100 -212 -128 -186 -66 -414 -94 -585 -70 -160 22 -310 100 -310
160 0 18 23 13 82 -17 21 -11 49 -19 63 -19 14 0 38 -13 57 -30 33 -32 68 -40
68 -15 0 21 17 19 47 -5 32 -25 49 -25 62 -2 10 16 12 16 41 0 39 -22 56 -23
64 -3 7 19 30 19 45 1 14 -17 51 -9 51 11 0 12 7 14 28 9 72 -18 77 -18 106 9
25 23 30 25 38 11 13 -24 37 -19 50 8 14 32 37 40 57 22 20 -18 51 -4 51 24 0
25 17 35 35 20 17 -14 72 -4 93 17 16 16 63 14 69 -3z m-728 -16 c21 -57 22
-68 8 -68 -8 0 -17 10 -21 23 -7 27 -8 67 -1 67 3 0 9 -10 14 -22z m-112 -40
c-3 -8 -6 -5 -6 6 -1 11 2 17 5 13 3 -3 4 -12 1 -19z m794 -98 c18 -111 106
-234 229 -314 38 -25 74 -46 80 -46 6 0 30 -10 53 -22 l42 -23 -115 -6 c-63
-4 -147 -4 -186 -1 -84 6 -137 -11 -228 -70 -72 -48 -103 -61 -183 -78 -68
-14 -132 -4 -179 27 -32 20 -105 173 -144 298 -12 39 -26 80 -31 93 -16 41
-12 64 13 60 16 -2 24 -13 30 -38 15 -63 41 -143 54 -169 8 -14 14 -31 14 -37
0 -7 13 -26 29 -43 34 -36 76 -41 112 -12 20 16 23 27 22 87 -1 38 -8 98 -17
134 -21 87 -21 87 17 98 85 26 88 24 102 -62 9 -56 21 -34 17 32 l-3 57 84 29
c46 15 102 38 123 51 22 12 43 18 48 14 5 -4 12 -31 17 -59z"/>
<path d="M5435 6065 c-5 -2 -41 -13 -80 -25 -86 -27 -161 -63 -328 -157 -169
-96 -279 -179 -442 -334 -44 -42 -96 -90 -115 -106 -46 -39 -218 -150 -305
-197 -64 -35 -125 -76 -113 -76 3 0 46 13 95 29 49 17 168 48 264 71 239 55
303 73 384 104 115 45 294 139 395 207 53 35 262 217 286 249 7 8 23 28 37 44
14 16 37 53 52 83 23 48 24 56 13 81 -12 25 -19 27 -73 29 -33 1 -64 0 -70 -2z"/>
<path d="M3333 4580 c-32 -19 -53 -48 -53 -72 1 -8 8 -5 18 8 33 39 81 57 136
50 l51 -6 -30 20 c-38 25 -81 25 -122 0z"/>
<path d="M2611 4459 c-30 -28 -21 -34 17 -12 26 15 36 16 61 6 25 -9 31 -9 31
2 0 31 -77 34 -109 4z"/>
<path d="M3412 4300 c-42 -10 -101 -57 -127 -101 -28 -49 -36 -245 -10 -255
24 -10 185 47 278 97 70 39 77 45 77 73 0 23 9 39 32 59 21 19 26 26 13 21
-57 -21 -92 -2 -58 33 10 10 25 27 33 38 13 17 11 17 -23 -4 l-37 -23 -47 31
c-25 17 -52 31 -59 31 -7 0 -18 2 -26 4 -7 2 -28 0 -46 -4z m102 -46 c39 -19
72 -72 81 -130 6 -36 5 -40 -24 -52 -29 -13 -33 -12 -59 15 -22 22 -27 32 -19
44 14 22 2 59 -28 91 -14 15 -25 32 -25 38 0 15 35 12 74 -6z m-80 -110 c3 -9
6 -25 6 -37 -1 -31 -37 -107 -51 -107 -6 0 -29 18 -51 40 -49 49 -50 85 -2 86
18 0 39 8 49 17 21 21 41 22 49 1z"/>
<path d="M3853 4089 c-64 -20 -197 -91 -248 -133 -46 -37 -21 -44 28 -8 43 33
210 119 282 146 58 22 11 18 -62 -5z"/>
<path d="M3905 3944 c-155 -32 -245 -65 -245 -90 0 -18 3 -18 52 7 74 38 161
59 267 66 88 6 99 8 66 14 -43 8 -107 9 -140 3z"/>
<path d="M2913 3891 c-48 -23 -63 -54 -38 -81 22 -24 80 -44 108 -36 24 6 67
63 67 88 0 41 -74 57 -137 29z"/>
<path d="M3525 2008 c-70 -23 -83 -84 -50 -229 16 -74 24 -107 45 -205 14 -63
40 -94 81 -94 69 0 92 42 110 203 21 187 -12 305 -91 327 -41 12 -55 11 -95
-2z"/>
</g>
</svg>
